<svg width="733" height="719" viewBox="0 0 733 719" fill="#000000" xmlns="http://www.w3.org/2000/svg">
<path d="M80.7288 428.354C77.9963 412.324 74.608 396.73 73.2427 380.96C71.8153 364.474 71.1484 347.739 72.2596 331.254C74.2865 301.185 81.0236 271.879 92.1625 243.835C99.519 225.314 108.712 207.625 119.582 190.81C134.207 168.188 151.829 148.146 171.626 130.078C187.551 115.543 205.137 103.115 223.969 92.4829C242.91 81.7886 262.571 72.6939 283.556 66.9876C298.293 62.9803 313.372 60.2209 328.321 57.011C350.388 52.2728 372.825 53.434 395.037 54.3118C415.372 55.1154 435.441 59.2645 455.143 64.8999C475.916 70.8419 495.786 78.8759 514.816 89.012C531.668 97.9879 547.737 108.275 562.137 120.815C574.098 131.231 585.94 141.919 596.723 153.52C611.397 169.31 623.733 186.974 634.405 205.788C645.223 224.857 654.29 244.705 660.167 265.789C664.223 280.344 666.843 295.304 669.987 310.107C674.674 332.175 673.513 354.602 672.711 376.824C671.989 396.864 667.937 416.655 662.491 436.054C656.528 457.296 648.323 477.659 637.925 497.08C628.996 513.758 618.735 529.667 606.345 543.993C596.949 554.857 587.084 565.359 576.883 575.472C562.522 589.709 546.085 601.409 528.89 611.951C507.73 624.923 485.337 635.434 461.386 642.056C446.824 646.082 431.903 648.838 417.104 651.976C395.208 656.62 372.902 655.914 350.903 654.592C332.266 653.472 313.657 649.63 295.372 645.503C272.119 640.255 250.203 630.883 229.242 619.575C212.741 610.672 196.919 600.541 182.803 588.144C170.884 577.676 159.009 567.029 148.228 555.426C133.555 539.634 121.237 521.957 110.554 503.153C99.7229 484.09 91.1398 464.098 84.6667 443.186C83.1959 438.434 82.1848 433.54 80.7288 428.354ZM360.448 591.958C364.517 598.13 368.586 604.302 372.828 610.737C395.887 573.426 418.33 537.112 440.926 500.551C455.332 513.959 469.369 527.023 483.871 540.521C497.694 518.222 511.141 496.528 524.692 474.668C542.075 488.678 559.135 502.426 576.194 516.175C576.703 513.77 576.272 511.858 575.534 510.074C571.065 499.266 566.129 488.635 562.083 477.673C549.104 442.512 543.297 405.939 542.086 368.631C541.299 344.396 541.387 320.133 540.969 295.884C540.838 288.296 540.39 280.711 539.973 273.131C539.784 269.705 539.779 266.168 538.887 262.901C535.427 250.229 531.977 237.533 527.832 225.076C525.911 219.301 522.4 214.055 519.296 207.951C510.48 217.913 502.261 226.857 494.563 236.228C493.238 237.841 493.483 241.439 494.107 243.833C496.127 251.579 499.806 259.046 500.795 266.88C504.588 296.925 482.733 318.626 457.065 323.975C451.112 325.215 445.089 326.126 439 327.205C439 331.108 438.488 334.693 439.12 338.062C440.073 343.139 438.962 349.275 444.293 352.63C450.681 356.651 457.353 360.22 463.898 363.992C474.01 369.818 484.119 375.65 495.594 382.266C493.983 383.097 493.24 383.463 492.512 383.858C482.487 389.294 472.287 394.434 462.499 400.267C454.755 404.882 447.099 409.84 440.157 415.56C429.924 423.992 424.211 436.031 418.415 447.5C408.583 466.953 400.844 487.337 394.803 508.366C388.918 528.857 382.374 549.159 376.099 569.538C375.23 572.363 374.244 575.152 373.312 577.957C372.77 577.886 372.229 577.815 371.688 577.744C366.792 561.657 361.87 545.577 357.006 529.48C347.73 498.783 338.369 468.092 322.901 439.784C316.085 427.309 307.753 415.767 295.483 408.002C286.935 402.592 277.862 398.014 269.065 392.992C262.895 389.469 256.795 385.824 250.274 382.006C252.675 380.537 254.292 379.493 255.959 378.538C271.434 369.668 286.957 360.878 302.335 351.844C303.695 351.046 304.701 348.747 304.901 347.032C305.704 340.142 306.126 333.209 306.709 326.044C290.879 326.551 276.343 322.808 263.926 312.935C251.8 303.294 244.778 290.785 243.954 275.001C243.406 264.497 245.828 254.74 250.21 245.324C251.633 242.267 253.081 239.428 250.088 236.04C242.518 227.473 235.339 218.561 227.87 209.902C227.533 209.512 225.317 209.902 224.956 210.51C222.831 214.087 220.915 217.796 219.078 221.535C208.354 243.359 204.51 266.726 204.045 290.748C203.518 317.994 203.702 345.258 202.843 372.49C202.421 385.849 201.172 399.306 198.804 412.449C195.642 430.002 191.956 447.575 186.782 464.62C181.376 482.431 173.938 499.626 167.256 517.44C184.874 503.338 202.665 489.096 220.586 474.75C234.367 497.003 247.725 518.574 261.347 540.57C275.896 526.991 289.969 513.857 304.092 500.676C305.231 502.374 306.16 503.666 306.995 505.016C318.338 523.344 329.695 541.664 340.991 560.021C347.392 570.423 353.688 580.891 360.448 591.958ZM455.452 235.03C468.778 222.709 482.291 210.582 495.378 198.011C507.289 186.568 516.686 173.084 524.968 158.846C527.071 155.23 528.635 151.299 530.447 147.513C521.763 152.245 513.936 157.28 506.144 162.371C497.995 167.695 493.885 167.176 486.855 160.41C476.396 150.343 464.547 142.138 451.753 135.341C422.235 119.66 391.014 112.438 357.455 115.897C343.542 117.33 330.135 120.209 316.951 124.89C294.191 132.97 274.252 145.443 256.664 161.845C252.665 165.575 248.072 167.375 242.978 164.892C237.65 162.293 232.764 158.797 227.482 156.089C223.76 154.181 221.766 148.876 216.088 150.265C217.074 152.405 217.699 154.62 218.965 156.371C228.066 168.959 236.423 182.232 246.713 193.775C258.749 207.275 271.611 220.371 285.759 231.565C300.716 243.4 317.812 252.493 333.555 263.387C340.116 267.928 345.303 268.143 352.487 264.463C367.221 256.916 382.365 258.296 396.619 266.401C400.149 268.408 403.129 268.574 406.192 266.889C413.795 262.704 421.383 258.445 428.66 253.725C437.593 247.93 446.204 241.638 455.452 235.03ZM345.034 418.365C346.018 419.852 347.294 421.221 347.94 422.842C355.351 441.425 362.659 460.048 370.02 478.65C370.782 480.575 371.709 482.434 372.597 484.408C379.467 466.408 385.362 448.77 392.872 431.848C402.089 411.077 416.334 394.106 437.057 381.659C431.446 378.488 426.585 375.466 421.485 372.924C414.189 369.287 410.546 363.967 410.87 355.497C411.158 347.958 410.642 340.349 409.936 332.822C408.53 317.83 402.227 305.146 390.74 295.287C383.176 288.794 374.305 285.238 364.726 289.287C351.034 295.073 341.391 305.588 338.256 320.165C335.666 332.205 335.194 344.718 334.056 357.046C333.436 363.757 331.53 369.094 324.724 372.144C319.005 374.707 313.74 378.283 308.062 381.532C323.534 390.689 335.77 402.607 345.034 418.365ZM473 270.708C472.354 268.253 471.78 265.776 471.04 263.349C470.305 260.938 468.993 260.31 466.644 261.83C455.596 268.98 444.49 276.041 433.384 283.1C428.59 286.147 423.745 289.112 418.746 292.225C429.875 298.938 441.132 299.585 452.487 295.905C465.249 291.769 473.379 282.7 473 270.708ZM278.453 286.969C289.287 299.85 314.243 300.996 325.298 292.56C323.683 291.072 322.287 289.338 320.506 288.215C306.523 279.398 292.439 270.742 278.457 261.924C275.814 260.257 275.049 261.033 273.904 263.674C270.178 272.273 272.28 279.62 278.453 286.969Z" fill="white"/>
<path d="M473 271.152C473.379 282.7 465.248 291.769 452.487 295.905C441.132 299.586 429.875 298.939 418.745 292.225C423.744 289.113 428.59 286.147 433.383 283.101C444.49 276.042 455.596 268.981 466.644 261.83C468.992 260.31 470.305 260.938 471.04 263.35C471.78 265.776 472.353 268.254 473 271.152Z" fill="black"/>
<path d="M278.205 286.701C272.279 279.62 270.177 272.274 273.904 263.675C275.049 261.033 275.814 260.258 278.457 261.924C292.439 270.742 306.523 279.399 320.506 288.216C322.287 289.339 323.683 291.072 325.298 292.56C314.243 300.996 289.287 299.85 278.205 286.701Z" fill="black"/>
</svg>
