<svg width="1080" height="1080" viewBox="0 0 1080 1080" fill="none" xmlns="http://www.w3.org/2000/svg">
<g clip-path="url(#clip0_3136_2)">
<path d="M494 1C524.688 0.999996 555.375 0.999996 586.285 1.39394C591.116 2.52415 595.713 3.3474 600.337 3.97996C612.93 5.70293 625.676 6.64474 638.105 9.16259C665.654 14.7435 692.927 21.5164 719.52 30.8087C746.543 40.2516 772.784 51.468 797.783 65.4252C810.339 72.4351 822.814 79.6589 834.847 87.5189C846.921 95.4059 858.768 103.742 870.05 112.716C885.405 124.93 900.733 137.301 914.949 150.789C928.213 163.374 940.543 177.059 952.304 191.082C964.831 206.019 976.574 221.656 988.003 237.462C1005.9 262.217 1020 289.235 1032.85 316.856C1039.23 330.578 1045.2 344.614 1049.83 358.999C1056.7 380.311 1062.66 401.944 1068.12 423.666C1071.58 437.482 1073.66 451.669 1075.92 465.76C1077.37 474.784 1077.97 483.942 1079.08 493.022C1079.17 493.749 1080.34 494.344 1081 495C1081 525.021 1081 555.042 1080.62 585.25C1079.82 588.788 1079.46 592.15 1078.97 595.49C1077 608.69 1075.42 621.964 1072.9 635.057C1069.78 651.237 1066.6 667.475 1062.11 683.305C1056.83 701.892 1050.32 720.144 1043.96 738.404C1034.44 765.68 1020.96 791.127 1006.38 815.923C994.219 836.613 981.144 856.792 965.434 875.086C953.365 889.139 941.898 903.766 929.088 917.105C916.765 929.937 903.465 941.923 889.848 953.394C876.187 964.903 861.932 975.778 847.353 986.107C822.085 1004.01 795.314 1019.46 766.935 1031.94C752.318 1038.36 737.524 1044.44 722.567 1050.02C699.234 1058.72 675.229 1065.2 650.783 1069.98C639.966 1072.1 629.153 1074.31 618.255 1075.91C608.385 1077.35 598.399 1077.99 588.478 1079.11C587.921 1079.17 587.49 1080.34 587 1081C556.312 1081 525.625 1081 494.777 1080.63C493.934 1079.85 493.289 1079.17 492.563 1079.07C475.804 1076.68 459.02 1074.46 442.275 1071.98C420.175 1068.7 398.59 1063.11 377.456 1056.01C361.271 1050.57 345.101 1044.85 329.502 1037.95C309.745 1029.22 290.096 1020.01 271.273 1009.44C248.962 996.923 227.437 982.939 207.817 966.334C193.565 954.272 178.923 942.595 165.482 929.677C152.54 917.237 140.377 903.876 128.862 890.092C116.582 875.39 104.927 860.092 93.9622 844.382C77.6663 821.035 63.5924 796.357 51.6326 770.431C41.957 749.456 33.4798 728.107 26.4901 706.095C18.9906 682.478 12.5993 658.621 9.00064 634.089C6.77851 618.941 5.01258 603.727 2.92759 588.558C2.80066 587.634 1.66585 586.849 1 586C1 555.979 1.00001 525.958 1.37413 495.775C2.49729 491.009 3.34308 486.419 3.97676 481.8C5.70456 469.207 6.45793 456.404 9.20737 444.042C14.3588 420.88 19.7635 397.699 26.7369 375.041C32.4061 356.621 40.0712 338.761 47.6622 321C58.2431 296.242 70.6429 272.34 85.6593 249.958C95.5175 235.264 105.816 220.811 116.763 206.918C128.008 192.646 139.818 178.749 152.25 165.503C162.641 154.432 173.986 144.192 185.458 134.216C197.136 124.061 209.251 114.369 221.593 105.027C243.184 88.6829 266.154 74.3868 290.248 62.0747C306.482 53.7789 323.089 46.0972 339.961 39.1988C354.686 33.1784 369.861 28.1112 385.123 23.5916C400.298 19.098 415.79 15.6329 431.222 12.06C441.313 9.72363 451.489 7.61551 461.73 6.10732C471.929 4.60539 482.26 4.00845 492.52 2.89377C493.075 2.83344 493.509 1.65694 494 1ZM724.967 1014.98C724.967 1014.98 724.997 1015.08 725.696 1015.41C727.99 1014.3 730.284 1013.18 733.392 1012.15C734.958 1011.61 736.561 1011.15 738.086 1010.51C796.507 985.934 848.619 951.687 894.059 907.55C907.515 894.481 919.618 880.019 932.883 865.826C939.417 857.387 945.95 848.947 952.978 840.02C953.505 839.04 954.032 838.059 955.141 836.834C955.763 836.063 956.433 835.325 957.001 834.517C1007.61 762.47 1037.77 682.741 1047.21 595.156C1051.58 554.531 1050.99 513.975 1045.69 473.524C1040.77 435.945 1031.8 399.274 1018.31 363.831C972.861 244.425 893.899 154.083 781.963 92.646C712.865 54.7203 638.601 35.1867 559.987 32.1625C529.986 31.0083 500.07 32.6179 470.27 36.8016C424.488 43.2292 380.402 55.5366 338.061 73.9959C262.957 106.74 199.08 154.624 147.341 218.12C80.8042 299.775 42.7602 393.237 33.7492 498.35C30.015 541.909 31.8181 585.246 39.3306 628.285C51.4247 697.573 76.7436 761.698 115.436 820.475C130.297 843.05 146.595 864.524 165.486 884.668C166.282 885.454 167.078 886.24 168.175 887.63C173.505 893.08 178.835 898.529 184.19 904.657C185.691 905.941 187.209 907.208 188.693 908.512C197.999 916.692 207.298 924.88 217.012 933.629C217.759 934.291 218.484 934.981 219.258 935.611C263.53 971.606 312.395 999.637 366.044 1019.01C383.339 1025.26 401.286 1029.7 419.581 1035.41C422.563 1035.95 425.545 1036.49 429.009 1037.58C430.416 1037.96 431.823 1038.34 433.841 1038.98C435.988 1039.28 438.136 1039.58 440.754 1039.95C439.764 1034.41 437.745 1030.72 432.778 1028.24C430.331 1015.43 427.884 1002.62 425.367 989.445C433.682 990.745 440.842 991.864 448.008 993.846C447.75 995.809 447.699 997.826 447.201 999.725C444.06 1011.68 444.474 1023.71 446.147 1035.8C446.713 1039.89 448.5 1042.33 452.894 1042.79C472.324 1044.81 491.741 1046.97 511.79 1049.56C529.878 1049.65 547.965 1049.76 566.053 1049.81C566.649 1049.82 567.246 1049.34 568.795 1049.05C581.693 1047.92 594.592 1046.8 608.183 1045.74C609.545 1045.46 610.906 1045.18 613.066 1044.96C624.318 1042.98 635.608 1041.18 646.814 1038.96C673.374 1033.7 699.234 1026.03 724.857 1015.72C724.925 1015.46 724.993 1015.2 724.967 1014.98Z" fill="#FACD01"/>
<path d="M165.225 884.163C146.595 864.524 130.297 843.049 115.436 820.474C76.7437 761.698 51.4248 697.573 39.3307 628.285C31.8182 585.245 30.0151 541.908 33.7493 498.35C42.7603 393.236 80.8043 299.775 147.341 218.119C199.081 154.624 262.958 106.739 338.062 73.9955C380.402 55.5362 424.488 43.2288 470.27 36.8012C500.07 32.6175 529.987 31.0079 559.987 32.162C638.602 35.1863 712.865 54.7199 781.963 92.6456C893.899 154.083 972.861 244.425 1018.31 363.831C1031.8 399.274 1040.77 435.944 1045.69 473.523C1050.99 513.974 1051.58 554.53 1047.21 595.155C1037.77 682.74 1007.61 762.469 957.001 834.516C956.433 835.325 955.763 836.062 954.577 836.716C949.936 833.439 945.643 830.516 941.835 827.058C937.313 822.951 932.218 818.988 929.124 813.897C922.064 802.28 913.387 792.269 902.285 784.7C878.37 768.393 854.444 752.059 829.884 736.759C810.599 724.746 790.466 714.068 770.457 703.266C766.048 700.886 762.807 698.354 761.375 693.597C760.754 691.534 759.789 689.558 759.323 687.466C757.173 677.825 751.398 671.128 742.669 666.903C739.09 665.171 735.38 663.635 731.599 662.412C726.979 660.918 724.249 658.28 723.942 653.207C723.39 644.071 722.258 634.958 722.035 625.82C721.74 613.743 725.584 602.755 733.387 593.549C741.337 584.17 749.918 575.327 758.113 566.15C768.974 553.988 780.123 542.053 790.427 529.431C802.659 514.448 809.545 497.086 812.569 477.812C815.06 461.935 818.906 446.216 823.06 430.669C827.183 415.24 826.616 401.024 817.944 387.05C814.184 380.992 810.731 373.666 810.416 366.765C809.706 351.222 809.763 335.414 811.824 320.024C815.517 292.441 811.057 267.17 796.221 243.525C784.177 224.327 767.873 209.268 751.085 194.495C727.401 173.653 701.293 157.327 670.492 149.178C635.063 139.806 598.987 135.024 562.41 134.237C535.195 133.652 508.649 137.992 483.168 147.729C441.781 163.545 410.871 192.954 383.948 226.729C365.173 250.283 354.762 277.899 349.916 307.736C347.122 324.94 347.497 341.758 350.899 358.812C353.335 371.027 354.606 383.491 356.025 395.887C358.645 418.765 354.912 441.443 353.5 464.194C351.758 492.295 354.375 519.779 366.201 545.735C372.821 560.265 383.84 571.751 395.232 582.316C410.699 596.661 427.626 609.43 443.913 622.892C453.695 630.977 463.356 639.205 469.138 650.865C470.769 654.154 471.884 657.698 473.148 660.903C467.33 662.865 462.374 664.245 457.655 666.2C451.518 668.743 445.591 671.787 439.535 674.531C435.235 676.48 431.212 675.859 427.261 673.256C396.55 653.028 365.269 633.646 338.815 607.579C333.457 602.3 325.821 599.195 318.959 595.619C312.95 592.488 306.364 590.462 300.366 587.312C289.052 581.37 277.987 574.956 266.801 568.769C260.974 565.545 255.616 566.495 250.676 570.735C245.188 575.445 241.277 581.084 243.275 588.583C244.383 592.74 243.433 593.857 239.484 594.328C231.427 595.29 224.617 598.431 219.699 605.466C218.201 607.609 214.848 609.266 212.14 609.63C184.764 613.301 157.351 616.704 129.935 620.068C123.641 620.84 118.918 623.869 117.499 629.221C115.473 636.858 116.154 644.258 119.466 651.589C126.952 668.157 143.104 670.142 157.707 674.786C158.439 675.018 159.378 674.786 160.177 674.593C169.548 672.333 179.216 670.873 188.211 667.577C205.518 661.235 222.454 653.875 239.515 646.867C241.953 645.865 243.852 645.054 246.064 647.682C255.391 658.764 264.943 669.656 274.399 680.63C275.433 681.831 276.375 683.111 277.558 684.603C275.933 685.644 274.881 686.428 273.736 687.035C265.105 691.613 262.014 699.008 263.313 708.316C263.999 713.235 265.667 718.018 266.352 722.938C266.615 724.822 265.978 727.485 264.719 728.819C258.132 735.801 250.661 742.005 244.513 749.333C224.348 773.37 205.649 798.528 194.107 828.015C186.371 847.777 177.476 866.794 165.225 884.163Z" fill="#A3DADF"/>
<path d="M932.34 866.195C919.618 880.019 907.515 894.481 894.059 907.55C848.619 951.687 796.507 985.934 738.086 1010.51C736.562 1011.15 734.958 1011.61 733.167 1011.8C743.184 997.058 757.685 987.468 771.839 977.653C786.457 967.515 801.679 958.249 816.508 948.407C817.705 947.613 817.909 945.32 818.574 943.724C816.994 944.015 815.113 943.85 813.88 944.666C792.646 958.706 771.494 972.87 750.309 986.983C749.821 987.308 749.149 987.358 748.297 987.618C748.199 986.684 747.879 985.943 748.104 985.452C755.568 969.164 763.116 952.915 770.537 936.608C771.21 935.13 771.114 933.301 771.375 931.636C769.727 932.432 767.233 932.792 766.562 934.092C760.626 945.599 754.339 957.003 749.55 968.994C746.529 976.558 740.931 983.754 742.935 992.88C743.067 993.479 741.861 994.404 741.229 995.135C735.794 1001.42 730.349 1007.69 724.625 1013.79C722.377 1011.46 720.714 1008.88 718.384 1007.26C712.244 1002.98 705.924 1005.37 699.822 1007.67C690.19 1011.29 680.81 1015.68 670.997 1018.68C659.344 1022.25 647.253 1024.09 635.301 1019.79C628.13 1017.21 621.414 1013.23 614.13 1011.14C608.654 1009.58 605.272 1006.57 602.43 1002.1C594.431 989.508 586.407 976.93 578.205 964.471C575.371 960.166 571.985 956.225 568.917 952.059C568.984 951.999 568.865 952.132 568.913 951.82C568.639 951.004 568.316 950.499 567.767 949.725C565.397 944.087 562.135 938.884 561.318 933.321C558.916 916.962 554.218 901.579 545.392 887.542C543.481 884.502 541.53 881.59 537.082 882.875C536.419 883.066 535.071 882.417 534.68 881.769C531.699 876.833 528.888 871.794 526.003 866.8C521.438 858.9 516.672 851.11 512.326 843.091C505.85 831.142 498.168 819.564 493.694 806.877C486.248 785.764 480.835 763.926 474.759 742.339C469.432 723.414 462.203 705.511 448.779 690.677C445.358 686.897 442.077 682.989 438.974 679.42C446.077 676.046 453.807 672.268 461.638 668.714C464.188 667.556 466.977 666.884 469.703 666.166C472.271 665.49 474.325 665.996 474.991 669.06C475.271 670.348 476.012 671.544 476.238 672.835C477.493 680.012 479.148 687.163 479.755 694.399C481.519 715.435 493.276 729.811 510.369 740.269C526.341 750.041 543.877 754.462 562.706 756.501C590.156 759.473 615.703 754.689 640.446 743.616C660.936 734.447 678.817 721.049 697.238 707.929C709.477 709.687 719.467 703.241 730.569 700.257C731.139 702.785 731.64 705.006 731.984 707.522C707.338 726.496 682.052 743.767 654.639 758.156C626.106 773.133 596.231 779.966 564.334 778.903C536.592 777.979 511.894 770.097 494.298 746.854C491.186 742.743 488.136 738.582 484.903 734.569C484.236 733.74 482.883 733.464 481.846 732.934C481.577 734.111 480.782 735.497 481.148 736.422C481.931 738.397 483.071 740.355 484.495 741.93C491.63 749.817 498.304 758.279 506.329 765.15C512.229 770.202 519.553 774.395 526.949 776.758C560.193 787.382 593.603 785.795 626.654 775.584C648.1 768.959 667.489 757.83 686.276 745.837C701.121 736.36 715.355 725.926 730.149 716.14C732.517 725.297 739.401 728.944 747.174 731.691C748.722 732.238 750.14 733.189 751.563 734.046C763.673 741.339 775.651 748.861 787.904 755.905C801.45 763.692 814.907 771.421 827.167 781.331C844.19 795.09 862.016 807.855 879.588 821.431C880.78 822.833 881.882 823.849 883.166 825.153C891.533 831.755 899.78 837.991 907.833 844.467C909.035 845.433 909.326 847.531 909.756 849.351C890.47 854.608 871.962 860.993 854.39 869.868C836.249 879.029 818.519 888.877 803.469 902.804C801.716 904.425 800.379 906.664 799.412 908.864C799.119 909.528 800.503 911.492 801.537 911.985C802.268 912.333 804.668 911.221 804.675 910.737C804.757 904.98 809.607 903.005 813.136 900.456C842.246 879.428 873.876 863.629 908.886 854.906C910.895 854.405 912.446 852.063 914.596 850.687C916.57 851.938 918.29 852.936 919.721 854.248C923.989 858.164 928.142 862.204 932.34 866.195Z" fill="#D0D2BC"/>
<path d="M184.165 903.977C178.835 898.528 173.505 893.079 168.185 887.022C177.407 873.357 185.949 860 191.714 844.904C196.384 832.677 201.649 820.598 207.672 808.983C220.695 783.866 238.904 762.346 256.868 740.734C259.989 736.978 264.299 734.21 268.181 730.883C269.989 734.813 271.296 738.211 273.071 741.345C274.633 744.102 274.674 746.282 272.875 749.046C267.972 756.578 266.351 765.061 267.486 773.871C268.267 779.94 269.553 785.999 271.231 791.886C275.692 807.538 280.087 823.229 285.238 838.66C294.355 865.974 313.615 884.37 338.879 896.805C357.47 905.955 374.827 916.847 390.932 929.883C399.549 936.859 406.047 944.206 405.729 956.475C405.436 967.731 409.856 977.589 419.511 984.446C420.35 985.041 421.111 986.238 421.252 987.247C422.958 999.412 424.54 1011.59 426.146 1024.17C425.25 1026.17 424.491 1027.86 423.442 1029.35C422.058 1031.31 420.448 1033.1 418.935 1034.97C401.286 1029.7 383.339 1025.26 366.044 1019.01C312.395 999.636 263.53 971.605 219.257 935.61C218.484 934.98 217.759 934.29 216.875 932.916C216.857 931.045 216.917 929.876 217.103 928.728C223.109 891.481 236.587 857.062 256.405 825.054C259.204 820.533 262.154 816.106 265.061 811.652C265.846 810.449 266.726 809.307 267.562 808.137C266.065 807.865 264.569 807.592 262.965 806.976C256.563 795.221 243.055 797.66 237.872 807.934C235.51 812.617 231.898 816.709 228.605 820.874C216.276 836.463 204.719 852.453 199.867 872.234C199.588 873.372 198.398 874.287 197.309 875.246C195.452 875.464 193.918 875.741 192.384 876.018C193.159 877.085 193.858 878.221 194.735 879.196C195.37 879.901 196.243 880.392 196.964 881.339C193.599 889.196 190.28 896.692 186.614 904.132C185.566 904.044 184.865 904.01 184.165 903.977Z" fill="#D0D2BC"/>
<path d="M426.155 1023.77C424.541 1011.59 422.958 999.413 421.253 987.248C421.111 986.239 420.35 985.042 419.511 984.447C409.856 977.59 405.436 967.732 405.729 956.476C406.047 944.207 399.55 936.86 390.932 929.884C374.828 916.848 357.47 905.956 338.88 896.806C313.615 884.371 294.355 865.975 285.239 838.661C280.088 823.23 275.693 807.539 271.232 791.887C269.554 786 268.267 779.941 267.486 773.872C266.352 765.062 267.972 756.579 272.875 749.047C274.674 746.283 274.633 744.103 273.071 741.346C271.296 738.212 269.989 734.814 268.181 730.884C264.299 734.211 259.99 736.979 256.868 740.735C238.904 762.347 220.695 783.867 207.672 808.984C201.649 820.599 196.384 832.678 191.715 844.905C185.949 860.001 177.407 873.358 168.035 886.72C167.078 886.24 166.282 885.454 165.356 884.416C177.476 866.795 186.371 847.778 194.107 828.015C205.649 798.528 224.348 773.37 244.513 749.333C250.661 742.006 258.132 735.801 264.719 728.82C265.978 727.485 266.615 724.823 266.352 722.938C265.667 718.019 263.999 713.236 263.313 708.316C262.014 699.008 265.105 691.614 273.736 687.036C274.882 686.428 275.933 685.645 277.558 684.604C276.375 683.111 275.433 681.831 274.399 680.631C264.944 669.657 255.391 658.764 246.064 647.683C243.852 645.054 241.953 645.866 239.515 646.867C222.454 653.875 205.518 661.235 188.211 667.577C179.216 670.873 169.548 672.334 160.177 674.594C159.378 674.787 158.439 675.019 157.707 674.786C143.104 670.142 126.952 668.158 119.466 651.59C116.154 644.258 115.473 636.859 117.499 629.222C118.918 623.869 123.641 620.841 129.935 620.068C157.351 616.704 184.764 613.302 212.14 609.63C214.848 609.267 218.201 607.61 219.699 605.466C224.617 598.432 231.427 595.29 239.484 594.329C243.433 593.858 244.383 592.74 243.275 588.583C241.277 581.084 245.188 575.446 250.676 570.735C255.616 566.496 260.974 565.546 266.801 568.769C277.987 574.957 289.052 581.371 300.366 587.313C306.364 590.463 312.95 592.489 318.959 595.62C325.821 599.196 333.457 602.3 338.815 607.58C365.269 633.646 396.55 653.028 427.261 673.257C431.212 675.859 435.235 676.48 439.535 674.531C445.591 671.787 451.518 668.744 457.655 666.201C462.374 664.245 467.33 662.865 473.148 660.903C471.884 657.699 470.769 654.154 469.138 650.865C463.356 639.206 453.695 630.977 443.913 622.892C427.626 609.43 410.699 596.661 395.232 582.316C383.84 571.752 372.821 560.265 366.201 545.735C354.375 519.78 351.758 492.296 353.5 464.195C354.912 441.443 358.645 418.765 356.025 395.888C354.606 383.492 353.335 371.027 350.899 358.812C347.497 341.758 347.122 324.941 349.916 307.736C354.762 277.9 365.173 250.284 383.949 226.73C410.871 192.954 441.781 163.545 483.168 147.73C508.649 137.993 535.195 133.652 562.41 134.238C598.987 135.024 635.063 139.806 670.492 149.179C701.293 157.327 727.401 173.653 751.085 194.495C767.873 209.269 784.177 224.328 796.221 243.525C811.057 267.171 815.517 292.441 811.824 320.024C809.763 335.415 809.706 351.222 810.416 366.766C810.731 373.666 814.184 380.992 817.944 387.051C826.616 401.025 827.183 415.241 823.06 430.669C818.906 446.216 815.06 461.935 812.569 477.813C809.545 497.086 802.659 514.448 790.427 529.431C780.123 542.053 768.974 553.989 758.113 566.151C749.918 575.327 741.337 584.17 733.387 593.55C725.584 602.755 721.74 613.743 722.035 625.82C722.258 634.959 723.39 644.072 723.942 653.207C724.249 658.28 726.979 660.919 731.599 662.413C735.38 663.636 739.09 665.171 742.669 666.904C751.398 671.128 757.173 677.825 759.323 687.467C759.789 689.559 760.754 691.534 761.375 693.598C762.807 698.354 766.048 700.887 770.457 703.267C790.466 714.069 810.599 724.747 829.884 736.76C854.444 752.059 878.37 768.394 902.285 784.7C913.387 792.27 922.064 802.28 929.124 813.897C932.218 818.988 937.313 822.952 941.835 827.058C945.643 830.516 949.936 833.44 954.286 836.839C954.032 838.059 953.505 839.04 952.444 839.997C948.359 837.225 944.48 834.803 941.323 831.657C935.013 825.37 929.033 818.747 923.042 812.149C917.376 805.91 912.757 798.323 906.126 793.432C887.142 779.428 867.612 766.122 847.829 753.259C833.371 743.859 818.195 735.56 803.298 726.841C797.146 723.241 790.867 719.86 784.679 716.32C776.965 711.907 770.483 705.207 761.167 703.74C760.569 703.646 759.874 702.71 759.638 702.023C758.197 697.833 756.358 693.691 755.612 689.367C753.363 676.342 743.597 670.995 732.999 666.372C732.054 665.96 730.866 666.106 729.747 665.988C728.936 675.958 723.491 682.937 716.861 689.206C710.225 695.482 703.504 701.668 696.819 707.894C678.817 721.049 660.936 734.446 640.446 743.616C615.703 754.689 590.156 759.473 562.706 756.501C543.877 754.462 526.342 750.041 510.369 740.269C493.276 729.811 481.519 715.435 479.755 694.399C479.148 687.163 477.493 680.012 476.238 672.835C476.012 671.544 475.271 670.348 474.991 669.06C474.325 665.995 472.271 665.49 469.703 666.166C466.977 666.884 464.188 667.556 461.638 668.714C453.807 672.268 446.077 676.046 438.974 679.42C442.077 682.989 445.358 686.896 448.779 690.677C462.203 705.511 469.432 723.414 474.759 742.339C480.835 763.926 486.248 785.764 493.694 806.877C498.168 819.564 505.85 831.142 512.326 843.091C516.672 851.109 521.438 858.9 526.003 866.8C528.888 871.794 531.699 876.833 534.68 881.769C535.071 882.416 536.419 883.066 537.082 882.875C541.53 881.59 543.481 884.502 545.392 887.542C554.218 901.579 558.916 916.962 561.318 933.321C562.135 938.884 565.397 944.087 567.723 950.041C568.225 951.128 568.545 951.63 568.865 952.131C568.865 952.131 568.984 951.999 568.946 952.427C576.649 971.349 583.893 990.072 592.3 1008.26C598.126 1020.86 605.556 1032.71 612.268 1044.9C610.907 1045.18 609.545 1045.46 607.726 1045.37C586.67 1012.8 573.503 977.072 559.472 941.641C556.181 944.17 553.96 946.957 551.151 947.813C545.057 949.671 543.522 954.111 541.986 959.473C532.963 990.985 499.135 1007.04 471.901 991.092C470.738 990.411 469.054 990.21 467.68 990.369C461.108 991.13 454.559 992.092 448.001 992.983C440.842 991.864 433.683 990.745 425.368 989.445C427.884 1002.62 430.331 1015.43 432.803 1029.08C432.963 1032.86 433.096 1035.79 433.229 1038.73C431.823 1038.34 430.416 1037.96 428.783 1036.84C427.756 1031.99 426.955 1027.88 426.155 1023.77ZM466.39 909.293C465.588 910.471 464.786 911.649 463.383 913.164C455.946 922.077 452.505 932.452 451.965 944.816C452.226 947.613 452.488 950.41 452.839 954.005C454.914 966.983 460.648 977.715 472.251 985.655C476.744 987.666 481.062 990.502 485.77 991.511C494.542 993.39 503.449 993.547 512.059 988.187C513.383 987.554 514.707 986.922 516.701 986.068C520.207 983.086 523.712 980.103 527.743 976.776C528.498 975.525 529.254 974.274 530.534 972.592C538.734 961.27 541.335 948.687 539.008 934.203C537.016 928.802 535.024 923.4 532.928 917.319C531.159 915.094 529.39 912.869 527.312 910.021C516.592 897.717 495.797 891.069 479.32 900.281C475.191 903.19 471.061 906.1 466.39 909.293ZM325.035 662.257C324.761 662.325 324.487 662.392 324.213 662.459C324.416 662.696 324.618 662.933 325.009 663.816C332.105 672.409 340.469 679.332 351.511 684.424C350.783 683.046 350.666 682.504 350.331 682.239C342.031 675.676 333.708 669.142 325.035 662.257ZM256.1 636.25C261.061 635.482 265.478 634.305 263.888 627.549C263.716 626.818 264.845 625.78 265.37 624.884C266.128 625.776 267.247 626.558 267.557 627.585C268.015 629.104 267.897 630.797 268.073 633.029C271.844 631.843 275.201 630.787 278.135 629.865C272.131 623.457 266.31 617.132 260.313 610.979C259.521 610.167 257.831 610.23 257.781 610.216C258.478 615.641 259.917 620.926 259.545 626.08C259.306 629.385 256.398 632.498 254.333 636.003C254.67 636.121 255.006 636.238 256.1 636.25ZM528.343 894.207C526.461 895.687 524.578 897.167 522.464 898.829C526.607 902.568 530.262 905.866 533.946 909.861C537.337 917.602 540.729 925.344 544.094 933.965C544.338 937.62 544.582 941.275 544.844 945.194C551.455 942.894 555.567 939.558 556.089 932.134C554.612 918.281 550.091 905.38 543.538 893.191C539.696 886.044 537.939 885.992 531.236 891.994C530.483 892.651 529.729 893.308 528.343 894.207ZM239.025 627.909C239.293 632.138 239.561 636.367 239.838 640.738C240.896 639.493 241.637 637.742 242.771 637.433C248.939 635.752 251.25 630.271 254.426 625.786C255.456 624.331 255.568 621.615 255.045 619.777C252.743 611.69 249.734 609.976 241.48 611.343C238.554 611.828 235.617 612.249 232.119 612.735C231.747 612.799 231.374 612.862 230.082 612.798C210.943 613.774 191.879 615.383 171.237 619.177C182.201 627.03 184.947 636.395 181.096 647.854C177.441 648.908 176.884 647.609 177.596 644.099C179.883 632.812 176.626 626.81 165.581 621.392C159.821 621.464 154.061 621.535 148.302 621.606C148.15 622.211 147.998 622.815 147.845 623.419C149.217 624.704 150.705 625.889 151.93 627.301C153.409 629.005 155.349 630.719 155.891 632.75C157.698 639.517 159.283 646.381 160.295 653.304C160.724 656.237 160.163 659.724 158.865 662.38C157.675 664.814 154.888 666.468 152.088 669.153C159.635 670.849 165.949 670.497 172.866 667.267C175.869 666.427 178.872 665.588 182.632 664.81C186.149 663.604 189.667 662.398 193.899 661.049C197.579 659.351 201.259 657.653 205.709 656.013C213.246 652.555 220.783 649.097 229.076 645.668C234.815 642.161 236.811 635.002 233.948 627.14C233.954 626.02 233.96 624.899 234.68 623.788C236.066 624.899 237.451 626.01 239.025 627.909ZM435.769 986.295C438.893 986.79 442.016 987.286 446.046 987.874C451.728 987.638 457.409 987.402 463.09 987.166C463.291 986.661 463.493 986.157 463.695 985.652C450.215 971.397 445.53 954.417 447.949 935.62C442.043 937.888 436.56 939.995 430.275 941.89C428.503 942.291 426.731 942.692 424.153 943.092C421.419 943.667 418.68 944.224 415.951 944.823C411.565 945.787 409.142 948.305 409.992 952.995C410.966 958.37 411.45 963.975 413.385 969.003C417.13 978.731 424.76 984.253 435.769 986.295ZM136.895 623.314C125.352 623.179 118.74 628.828 120.111 638.016C120.353 639.635 122.374 640.988 123.822 643.002C123.97 643.372 124.117 643.741 124.019 644.827C124.025 646.813 123.328 649.195 124.179 650.705C126.109 654.133 128.632 657.277 131.22 660.272C135.367 665.069 141.258 666.527 146.964 665.523C155.195 664.074 157.769 656.92 154.079 647.269C153.258 645.519 152.436 643.768 151.699 641.21C151.28 636.133 151.693 630.63 144.894 628.084C142.451 626.648 140.008 625.213 136.895 623.314ZM294.97 768.995C293.966 769.698 292.961 770.402 291.432 770.684C286.855 764.077 282.278 757.47 277.363 750.373C271.742 758.987 270.287 767.789 272.588 776.74C276.891 793.478 282.369 809.918 286.542 826.685C294.147 857.241 312.782 878.555 340.481 892.278C365.417 904.634 388.877 918.884 407.62 939.918C408.496 940.901 410.577 941.504 411.914 941.264C418.605 940.063 425.297 938.757 431.872 937.044C440.897 934.693 449.359 931.34 452.754 921.365C452.967 920.739 453.298 920.149 453.609 919.56C465.229 897.495 487.074 887.086 509.259 893.05C511.186 893.568 513.061 894.347 515.015 894.681C519.897 895.513 526.039 892.264 528.906 887.477C531.504 883.141 528.928 879.966 526.565 876.633C524.646 873.927 522.963 871.044 521.305 868.165C517.584 861.699 513.964 855.175 510.266 848.696C504.585 838.743 498.266 829.1 493.302 818.803C482.906 797.237 477.987 773.815 472.333 750.766C463.683 715.501 446.223 687.514 413.88 668.845C385.908 652.701 359.65 633.858 336.498 610.926C331.262 605.741 323.747 602.724 317.014 599.221C310.261 595.706 303.005 593.153 296.274 589.601C286.134 584.249 276.441 578.035 266.208 572.882C259.353 569.43 253.014 571.85 248.909 578.14C245.199 583.826 246.009 590.043 251.219 595.288C258.145 602.263 264.959 609.36 272.105 616.104C278.628 622.259 285.193 628.46 292.33 633.86C311.559 648.407 331.171 662.446 350.438 676.944C352.969 678.849 359.916 680.867 352.784 685.852C352.959 691.204 349.953 689.124 347.68 687.888C335.835 681.448 325.208 673.322 317.431 662.285C310.752 652.807 302.567 645.651 292.708 639.587C285.887 635.392 280.106 631.652 272.423 636.715C271.784 637.136 270.783 636.964 269.996 637.211C262.952 639.425 255.919 641.671 248.256 644.106C249.731 646.12 250.508 647.37 251.465 648.462C272.76 672.751 294.076 697.023 315.385 721.301C316.043 722.051 316.895 722.752 317.219 723.636C317.495 724.389 317.459 725.703 316.979 726.168C316.441 726.689 315.024 726.94 314.391 726.587C313.279 725.969 312.42 724.848 311.547 723.857C302.416 713.485 293.309 703.092 284.183 692.715C280.72 688.778 278.137 688.397 273.764 691.289C266.879 695.841 266.151 702.565 267.481 709.877C271.515 732.048 282.464 750.923 294.97 768.995ZM689.841 707.123C698.492 699.331 707.371 691.771 715.685 683.634C719.043 680.349 721.397 675.932 723.727 671.762C724.54 670.305 724.441 667.858 723.852 666.181C721.028 658.137 717.819 650.425 718.838 641.38C719.779 633.023 718.651 624.451 719.26 616.033C719.618 611.1 721.591 606.284 722.901 601.169C722.049 601.461 721.557 601.569 721.12 601.788C699.559 612.619 676.554 619.117 653.129 624.288C650.467 624.876 647.562 624.368 644.77 624.368C644.618 623.74 644.465 623.113 644.313 622.485C646.064 621.695 647.746 620.654 649.576 620.155C663.048 616.482 676.619 613.16 690.022 609.257C706.317 604.513 722.035 597.934 733.945 585.567C752.061 566.753 769.637 547.378 786.672 527.578C797.548 514.938 805.084 499.945 807.096 483.24C809.334 464.649 813.217 446.607 818.983 428.811C823.67 414.344 822.147 400.519 813.331 387.356C809.581 381.755 806.732 374.598 806.264 367.951C805.334 354.755 805.912 341.398 806.654 328.152C807.576 311.719 810.366 295.301 806.833 278.907C803.463 263.27 797.684 248.704 786.123 236.229C784.667 234.215 783.326 232.105 781.736 230.203C768.736 214.656 753.078 201.995 737.631 189.028C719.263 173.609 698.865 161.968 675.983 155.282C639.378 144.584 601.807 139.365 563.7 138.424C537.684 137.782 512.188 141.252 487.679 150.349C444.615 166.334 412.445 196.255 385.371 232.091C364.116 260.222 353.357 292.664 352.137 327.735C351.68 340.854 354.462 354.193 356.692 367.274C360.582 390.092 361.717 412.97 359.593 435.971C357.475 458.9 355.529 481.804 358.97 504.756C362.481 528.174 369.994 549.471 386.593 567.569C405.11 587.758 425.9 604.956 448.366 620.262C466.279 632.466 486.201 637.809 508.023 635.746C522.446 634.382 536.916 633.506 551.372 632.523C552.793 632.427 554.268 633.108 555.717 633.429C555.716 634.15 555.715 634.872 555.714 635.593C540.42 638.453 524.861 639.157 509.322 640.309C493.422 641.487 477.94 640.624 462.875 633.194C463.226 634.401 463.229 634.965 463.509 635.292C475.305 649.093 479.934 665.896 483.252 683.147C484.63 690.311 484.362 697.832 486.103 704.879C489.418 718.294 499.031 727.14 510.2 734.268C542.02 754.576 576.627 756.041 612.226 748.228C641.586 741.784 665.532 724.718 689.841 707.123ZM228.671 607.931C237.029 607.129 245.387 606.327 254.276 605.475C247.038 595.186 229.897 596.824 223.722 607.957C225.269 607.957 226.517 607.957 228.671 607.931Z" fill="#1B120C"/>
<path d="M448.004 993.414C454.558 992.092 461.108 991.129 467.68 990.368C469.054 990.209 470.738 990.41 471.9 991.091C499.134 1007.04 532.962 990.984 541.986 959.472C543.522 954.11 545.057 949.67 551.15 947.813C553.96 946.956 556.181 944.169 559.471 941.641C573.503 977.071 586.67 1012.8 607.379 1045.34C594.591 1046.8 581.693 1047.92 567.868 1049.06C548.348 1049.08 529.755 1049.08 511.163 1049.08C491.741 1046.97 472.324 1044.81 452.894 1042.79C448.5 1042.33 446.713 1039.89 446.147 1035.8C444.474 1023.71 444.06 1011.68 447.2 999.724C447.699 997.825 447.75 995.808 448.004 993.414Z" fill="#CF9D03"/>
<path d="M697.238 707.93C703.503 701.669 710.224 695.482 716.861 689.207C723.491 682.938 728.936 675.959 729.747 665.988C730.866 666.106 732.054 665.961 732.999 666.373C743.597 670.996 753.363 676.343 755.611 689.368C756.358 693.691 758.197 697.833 759.637 702.023C759.874 702.71 760.569 703.647 761.167 703.741C770.482 705.208 776.965 711.908 784.679 716.321C790.867 719.86 797.146 723.241 803.298 726.842C818.195 735.56 833.371 743.859 847.829 753.26C867.611 766.122 887.142 779.429 906.126 793.433C912.757 798.324 917.376 805.911 923.041 812.15C929.033 818.748 935.013 825.371 941.323 831.658C944.48 834.804 948.358 837.226 952.197 840.241C945.95 848.948 939.417 857.387 932.612 866.012C928.142 862.205 923.988 858.165 919.721 854.249C918.29 852.936 916.57 851.939 914.386 850.492C912.539 849.826 911.289 849.466 910.039 849.105C909.326 847.531 909.034 845.434 907.833 844.468C899.78 837.991 891.532 831.756 883.337 824.808C883.044 822.162 882.764 820.15 882.483 818.138C881.488 819.107 880.493 820.077 879.498 821.046C862.016 807.855 844.19 795.09 827.167 781.331C814.907 771.422 801.45 763.693 787.904 755.906C775.651 748.862 763.673 741.34 751.563 734.047C750.14 733.19 748.722 732.239 747.174 731.692C739.401 728.945 732.517 725.297 730.328 715.849C734.686 712.474 739.265 709.764 743.541 706.639C744.57 705.887 744.596 703.761 745.084 702.267C743.648 702.309 742.02 701.928 740.814 702.475C737.82 703.834 735.019 705.616 732.141 707.229C731.64 705.007 731.139 702.785 730.569 700.258C719.467 703.241 709.476 709.688 697.238 707.93ZM784.799 732.776C781.77 731.412 778.815 729.828 775.681 728.776C774.073 728.236 772.146 728.646 770.363 728.628C771.455 729.987 772.361 731.582 773.694 732.638C774.957 733.638 776.665 734.079 778.181 734.756C793.421 741.559 808.135 749.358 820.599 760.578C834.806 773.367 848.522 786.7 862.481 799.765C863.801 801.001 865.332 802.01 866.893 803.223C869.279 799.321 867.392 797.271 865.248 795.252C857.014 787.499 848.704 779.824 840.592 771.944C824.261 756.081 806.599 742.144 784.799 732.776Z" fill="#ADA69E"/>
<path d="M612.668 1044.93C605.556 1032.71 598.126 1020.86 592.3 1008.26C583.893 990.071 576.649 971.348 568.88 952.486C571.985 956.224 575.371 960.165 578.205 964.47C586.407 976.93 594.432 989.507 602.43 1002.1C605.272 1006.57 608.654 1009.58 614.131 1011.14C621.414 1013.23 628.131 1017.21 635.302 1019.79C647.253 1024.09 659.344 1022.25 670.997 1018.68C680.81 1015.68 690.19 1011.29 699.822 1007.67C705.924 1005.37 712.244 1002.98 718.384 1007.26C720.714 1008.88 722.377 1011.46 724.651 1014.06C724.971 1014.71 724.984 1014.89 724.997 1015.08C724.997 1015.08 724.968 1014.98 724.856 1015.08C724.509 1015.34 724.373 1015.56 724.336 1015.84C699.234 1026.02 673.374 1033.7 646.815 1038.96C635.609 1041.18 624.318 1042.97 612.668 1044.93Z" fill="#AEA79E"/>
<path d="M725.347 1015.25C724.984 1014.89 724.971 1014.71 724.932 1014.25C730.348 1007.69 735.794 1001.42 741.228 995.134C741.861 994.403 743.066 993.479 742.935 992.879C740.931 983.753 746.529 976.557 749.55 968.993C754.339 957.002 760.625 945.598 766.561 934.092C767.232 932.791 769.727 932.431 771.375 931.635C771.114 933.301 771.21 935.129 770.537 936.608C763.116 952.915 755.568 969.164 748.104 985.451C747.879 985.942 748.199 986.683 748.297 987.617C749.149 987.357 749.82 987.307 750.309 986.982C771.494 972.869 792.646 958.705 813.88 944.665C815.113 943.849 816.994 944.015 818.574 943.723C817.909 945.32 817.705 947.612 816.508 948.407C801.678 958.248 786.457 967.514 771.838 977.652C757.685 987.467 743.184 997.057 732.76 1011.76C730.283 1013.18 727.99 1014.3 725.347 1015.25Z" fill="#151510"/>
<path d="M263.072 807.32C264.569 807.593 266.065 807.865 267.562 808.137C266.726 809.307 265.846 810.449 265.061 811.653C262.155 816.106 259.204 820.534 256.405 825.055C236.587 857.062 223.109 891.482 217.103 928.728C216.917 929.876 216.857 931.045 216.669 932.634C207.298 924.879 197.999 916.691 188.693 908.512C187.209 907.207 185.691 905.941 184.177 904.317C184.866 904.011 185.566 904.044 186.775 904.428C195.887 910.621 204.49 916.463 213.387 922.505C213.658 921.466 214.051 920.267 214.279 919.038C218.533 896.056 225.159 873.734 235.936 853.02C244.1 837.328 253.965 822.521 263.072 807.32Z" fill="#1B110E"/>
<path d="M426.147 1024.17C426.955 1027.88 427.755 1031.99 428.541 1036.57C425.545 1036.49 422.563 1035.95 419.258 1035.19C420.448 1033.1 422.059 1031.31 423.442 1029.35C424.491 1027.86 425.25 1026.17 426.147 1024.17Z" fill="#A8A394"/>
<path d="M433.535 1038.86C433.096 1035.79 432.963 1032.86 432.925 1029.46C437.745 1030.72 439.764 1034.41 440.754 1039.95C438.136 1039.58 435.988 1039.28 433.535 1038.86Z" fill="#C39806"/>
<path d="M511.477 1049.32C529.756 1049.08 548.349 1049.08 567.392 1049.08C567.246 1049.34 566.649 1049.82 566.053 1049.81C547.965 1049.76 529.878 1049.65 511.477 1049.32Z" fill="#E4C151"/>
<path d="M724.596 1015.78C724.373 1015.56 724.509 1015.34 724.903 1015.06C724.994 1015.2 724.925 1015.46 724.596 1015.78Z" fill="#151510"/>
<path d="M731.984 707.522C735.019 705.616 737.82 703.833 740.814 702.474C742.02 701.927 743.648 702.308 745.083 702.266C744.596 703.761 744.57 705.886 743.541 706.639C739.264 709.763 734.685 712.473 730.039 715.626C715.355 725.926 701.12 736.359 686.276 745.837C667.489 757.83 648.099 768.958 626.654 775.584C593.603 785.795 560.193 787.382 526.949 776.758C519.553 774.394 512.229 770.202 506.329 765.15C498.304 758.279 491.63 749.817 484.495 741.93C483.07 740.355 481.931 738.397 481.148 736.422C480.781 735.497 481.577 734.111 481.846 732.933C482.883 733.464 484.236 733.74 484.903 734.569C488.136 738.582 491.186 742.743 494.298 746.854C511.894 770.097 536.592 777.979 564.334 778.903C596.231 779.966 626.106 773.133 654.639 758.156C682.051 743.767 707.338 726.495 731.984 707.522Z" fill="#13140F"/>
<path d="M909.756 849.352C911.289 849.466 912.539 849.827 914 850.383C912.445 852.064 910.895 854.406 908.885 854.907C873.875 863.629 842.245 879.429 813.135 900.457C809.607 903.006 804.757 904.981 804.675 910.738C804.668 911.221 802.268 912.334 801.536 911.986C800.503 911.493 799.119 909.528 799.411 908.864C800.379 906.664 801.716 904.426 803.469 902.804C818.519 888.877 836.249 879.03 854.39 869.868C871.962 860.994 890.47 854.608 909.756 849.352Z" fill="#151610"/>
<path d="M879.588 821.431C880.493 820.075 881.488 819.106 882.483 818.137C882.764 820.149 883.045 822.16 883.155 824.518C881.882 823.848 880.78 822.832 879.588 821.431Z" fill="#363430"/>
<path d="M568.913 951.821C568.545 951.63 568.225 951.128 567.949 950.311C568.316 950.499 568.639 951.005 568.913 951.821Z" fill="#AEA79E"/>
<path d="M262.965 806.977C253.965 822.522 244.1 837.329 235.936 853.021C225.159 873.735 218.533 896.057 214.279 919.039C214.051 920.268 213.658 921.467 213.388 922.506C204.49 916.464 195.887 910.622 187.122 904.484C190.28 896.693 193.599 889.197 197.302 881.41C201.136 883.958 204.498 886.918 208.093 889.56C209.157 890.341 210.879 890.227 212.3 890.523C212.031 889.216 212.217 887.393 211.418 886.687C206.954 882.744 202.252 879.071 197.632 875.306C198.398 874.288 199.588 873.373 199.867 872.235C204.719 852.454 216.276 836.464 228.605 820.874C231.898 816.71 235.51 812.618 237.872 807.935C243.056 797.661 256.563 795.222 262.965 806.977Z" fill="#ADA69E"/>
<path d="M197.31 875.248C202.252 879.072 206.954 882.745 211.418 886.688C212.217 887.394 212.031 889.217 212.3 890.524C210.879 890.227 209.157 890.342 208.093 889.56C204.498 886.918 201.136 883.958 197.348 881.05C196.243 880.394 195.37 879.903 194.736 879.198C193.858 878.223 193.159 877.086 192.384 876.019C193.919 875.742 195.453 875.466 197.31 875.248Z" fill="#1E1917"/>
<path d="M689.171 707.284C665.533 724.718 641.586 741.784 612.226 748.228C576.627 756.041 542.02 754.576 510.2 734.268C499.032 727.14 489.418 718.294 486.103 704.879C484.362 697.832 484.63 690.311 483.252 683.147C479.934 665.896 475.305 649.093 463.509 635.292C463.229 634.965 463.226 634.401 462.875 633.194C477.94 640.624 493.423 641.487 509.322 640.309C524.861 639.157 540.42 638.453 555.714 635.593C555.715 634.872 555.716 634.15 555.717 633.429C554.268 633.108 552.793 632.427 551.372 632.523C536.916 633.506 522.446 634.382 508.023 635.746C486.202 637.809 466.279 632.466 448.366 620.262C425.9 604.956 405.11 587.758 386.593 567.569C369.994 549.471 362.481 528.174 358.97 504.756C355.53 481.804 357.475 458.9 359.593 435.971C361.717 412.97 360.582 390.092 356.692 367.274C354.462 354.193 351.68 340.854 352.137 327.735C353.357 292.664 364.116 260.222 385.371 232.091C412.445 196.255 444.615 166.334 487.679 150.349C512.188 141.252 537.684 137.782 563.7 138.424C601.807 139.365 639.378 144.584 675.983 155.282C698.865 161.968 719.263 173.609 737.631 189.028C753.078 201.995 768.736 214.656 781.736 230.203C783.326 232.105 784.667 234.215 785.901 236.786C785.152 240.027 784.028 242.749 784.192 245.391C785.652 268.904 787.659 292.387 788.853 315.912C789.738 333.354 789.654 350.845 790.004 368.313C790.018 368.979 790.003 369.655 790.112 370.308C793.54 390.805 796.319 411.352 793.941 432.196C792.909 441.246 792.239 450.411 790.255 459.266C784.633 484.355 773.55 507.292 760.93 529.496C755.329 539.351 751.426 549.787 740.52 556.665C725.882 565.896 713.148 578.127 699.423 588.847C697.314 590.494 694.311 591.059 691.657 591.926C689.148 592.746 686.418 592.99 684.018 594.026C659.583 604.575 635.127 615.016 609.3 621.872C601.113 624.045 597.397 630.833 599.137 638.778C600.653 645.698 608.344 650.745 616.346 648.739C628.743 645.632 641.051 641.995 653.108 637.759C661.875 634.679 665.79 636.25 667.89 645.327C671.099 659.203 674.086 673.151 677.985 686.836C679.464 692.029 683.209 696.577 685.917 701.421C687.008 703.372 688.086 705.329 689.171 707.284ZM514.944 310.343C513.637 310.589 512.336 310.867 511.024 311.077C478.767 316.242 447.938 325.703 419.248 341.588C409.275 347.11 400.122 353.704 392.89 362.625C385.628 371.583 387.15 381.325 397.621 386.108C404.554 389.276 412.455 391.059 420.086 391.818C437.596 393.559 454.965 391.206 472.192 387.95C502.82 382.162 531.871 372.021 558.878 356.337C567.587 351.28 575.432 345.103 581.063 336.59C586.824 327.878 585.102 319.584 576.105 314.651C571.965 312.381 567.221 310.84 562.564 309.956C547.008 307.003 531.393 308.331 514.944 310.343ZM750.652 372.225C751.556 371.804 752.468 371.4 753.363 370.96C769.438 363.06 772.117 348.406 759.347 335.856C754.781 331.369 749.505 327.265 743.874 324.253C709.435 305.833 672.538 300.285 634.151 305.591C625.387 306.802 616.445 310.516 608.795 315.099C597.819 321.674 596.648 334.296 605.293 343.812C609.599 348.552 614.707 352.836 620.134 356.24C640.824 369.219 663.898 375.277 687.918 377.882C708.896 380.156 729.794 380.236 750.652 372.225ZM551.562 586.772C569.516 586.151 587.569 586.5 605.401 584.686C634.041 581.773 660.768 572.159 685.66 557.683C696.531 551.362 704.48 542.507 708.214 530.182C711.297 520.005 715.406 510.079 717.713 499.74C722.437 478.572 734.726 463.691 753.346 453.448C755.678 452.165 757.906 450.68 760.29 449.507C777.321 441.129 784.413 426.964 784.247 408.551C784.175 400.587 779.48 393.962 771.67 392.002C767.22 390.885 762.445 390.485 757.848 390.645C748.034 390.987 738.25 392.202 728.437 392.508C716.808 392.871 705.147 393.026 693.527 392.569C684.735 392.223 676.006 390.454 667.213 389.889C652.181 388.923 637.541 386.58 623.351 381.187C616.725 378.669 609.622 377.155 602.603 375.971C578.288 371.866 554.987 376.511 532.048 384.512C507.829 392.961 483.14 399.596 457.653 403.14C440.552 405.517 424.807 411.23 411.674 423.105C401.784 432.047 394.703 453.945 407.337 468.317C410.853 472.316 414.182 476.489 417.842 480.35C426.086 489.047 434.605 497.485 442.784 506.241C450.954 514.987 453.625 525.334 451.447 537.177C448.222 554.702 454.843 567.31 470.98 574.936C473.972 576.35 477.132 577.519 480.328 578.371C503.341 584.51 526.959 585.678 551.562 586.772ZM715.169 280.314C713.912 279.88 712.655 279.445 711.397 279.012C685.744 270.161 660.014 269.374 633.975 277.59C618.217 282.561 607.142 293.825 595.636 304.626C594.715 305.49 593.934 306.845 593.764 308.066C593.614 309.149 594.405 310.362 594.78 311.517C595.804 311.045 597.022 310.778 597.804 310.046C598.739 309.172 599.172 307.784 600.044 306.818C616.691 288.372 637.394 278.238 662.248 277.096C702.181 275.259 735.58 290.174 764.011 317.433C766.279 319.608 768.297 322.104 770.118 324.673C776.838 334.152 778.386 344.387 774.506 355.461C774.03 356.821 774.819 358.625 775.021 360.223C776.475 359.198 778.025 358.278 779.336 357.096C779.865 356.618 779.944 355.579 780.11 354.771C782.757 341.898 781.109 329.986 772.432 319.544C757.228 301.248 737.491 289.586 715.169 280.314ZM466.767 298.136C503.69 286.398 539.97 284.967 575.009 304.7C576.077 305.302 577.855 304.642 579.301 304.57C578.538 303.013 578.182 300.629 576.951 300.024C560.735 292.043 543.954 285.787 525.64 284.913C497.647 283.576 471.074 289.263 445.896 301.451C428.919 309.669 412.88 319.382 398.976 332.284C392.419 338.368 387.011 345.344 384.636 354.114C383.917 356.765 384.524 359.776 384.524 362.622C385.099 362.656 385.673 362.691 386.248 362.725C386.818 361.413 387.554 360.148 387.93 358.782C391.078 347.364 398.19 338.684 407.203 331.506C425.012 317.322 444.391 305.838 466.767 298.136ZM635.376 679.852C625.601 690.507 615.786 701.126 606.11 711.872C605.122 712.969 604.972 714.821 604.433 716.323C605.998 715.907 608.093 715.998 609.05 714.999C624.929 698.439 640.697 681.773 656.356 665.005C657.326 663.965 657.186 661.888 657.562 660.294C655.993 660.787 653.979 660.825 652.931 661.851C647.108 667.546 641.521 673.481 635.376 679.852ZM743.519 520.525C746.004 507.486 748.546 494.457 750.888 481.392C751.124 480.071 750.157 478.534 749.748 477.097C748.714 477.94 747.094 478.586 746.734 479.656C742.523 492.176 739.61 504.964 740.101 518.279C740.138 519.267 741.99 520.188 743.519 520.525ZM556.246 615.742C566.003 624.574 577.787 627.802 590.598 627.896C591.782 627.905 592.979 626.208 594.17 625.304C593.004 624.608 591.856 623.343 590.67 623.306C582.201 623.044 574.251 620.994 566.755 617.076C564.253 615.768 561.792 614.31 559.149 613.384C558.37 613.111 557.035 614.425 556.246 615.742ZM408.64 546.773C406.633 545.164 404.685 544.158 403.051 547.222C408.214 553.843 413.23 560.411 418.441 566.82C419.29 567.864 421 568.207 422.313 568.874C422.207 567.365 422.649 565.469 421.904 564.409C417.809 558.589 413.424 552.974 408.64 546.773Z" fill="#F8C900"/>
<path d="M295.666 768.71C282.464 750.923 271.514 732.048 267.481 709.877C266.151 702.565 266.879 695.841 273.763 691.289C278.137 688.397 280.72 688.778 284.183 692.715C293.308 703.092 302.416 713.485 311.547 723.857C312.419 724.848 313.279 725.969 314.39 726.587C315.024 726.94 316.44 726.689 316.978 726.168C317.458 725.703 317.495 724.389 317.219 723.636C316.895 722.752 316.042 722.051 315.384 721.301C294.076 697.023 272.76 672.751 251.464 648.462C250.507 647.37 249.73 646.12 248.256 644.106C255.919 641.671 262.952 639.425 269.995 637.211C270.783 636.964 271.784 637.136 272.423 636.715C280.106 631.652 285.887 635.392 292.708 639.587C302.567 645.651 310.751 652.807 317.43 662.285C325.208 673.322 335.835 681.448 347.68 687.888C349.953 689.124 352.959 691.204 352.784 685.852C359.916 680.867 352.969 678.849 350.437 676.944C331.171 662.446 311.558 648.407 292.33 633.86C285.192 628.46 278.628 622.259 272.104 616.104C264.958 609.36 258.145 602.263 251.218 595.288C246.009 590.043 245.199 583.826 248.909 578.14C253.013 571.85 259.353 569.43 266.208 572.882C276.441 578.035 286.134 584.249 296.274 589.601C303.005 593.153 310.261 595.707 317.014 599.221C323.746 602.724 331.262 605.741 336.497 610.926C359.65 633.858 385.908 652.701 413.879 668.845C446.223 687.514 463.682 715.501 472.333 750.766C477.987 773.815 482.906 797.237 493.302 818.803C498.266 829.1 504.585 838.743 510.265 848.696C513.963 855.175 517.584 861.699 521.305 868.165C522.962 871.044 524.646 873.927 526.565 876.633C528.928 879.966 531.504 883.141 528.906 887.478C526.039 892.264 519.896 895.513 515.015 894.681C513.061 894.347 511.186 893.569 509.259 893.051C487.073 887.086 465.229 897.495 453.608 919.56C453.298 920.149 452.967 920.739 452.754 921.365C449.359 931.34 440.896 934.693 431.872 937.044C425.296 938.757 418.605 940.063 411.914 941.264C410.577 941.504 408.495 940.901 407.619 939.918C388.877 918.884 365.417 904.634 340.481 892.279C312.782 878.555 294.146 857.241 286.541 826.685C282.368 809.918 276.891 793.478 272.588 776.74C270.287 767.789 271.741 758.987 277.362 750.374C282.278 757.47 286.855 764.077 291.745 771.238C293.768 775.443 295.395 779.137 297.226 782.727C297.963 784.172 298.867 785.879 300.176 786.625C305.733 789.795 311.384 792.842 317.211 795.464C318.432 796.014 320.546 794.578 322.248 794.057C320.953 793.029 319.812 791.535 318.338 791.048C309.04 787.979 300.676 784.114 298.635 773.034C298.346 771.464 296.689 770.145 295.666 768.71ZM342.634 751.028C349.528 750.607 356.44 750.35 363.302 749.622C364.595 749.485 365.689 747.474 366.874 746.328C365.293 745.9 363.523 744.783 362.16 745.155C352.885 747.681 343.849 747.455 334.859 743.934C333.95 743.579 332.583 744.397 331.429 744.67C332.069 745.802 332.441 747.504 333.402 747.958C336.072 749.22 338.986 749.963 342.634 751.028ZM379.331 718.409C381.755 718.304 384.209 718.387 386.584 717.99C387.378 717.858 387.968 716.502 388.651 715.705C387.776 715.107 386.954 714.112 386.017 713.989C383.889 713.709 381.687 713.685 379.549 713.901C378.411 714.016 377.345 714.849 376.246 715.358C377.023 716.279 377.799 717.199 379.331 718.409ZM321.271 837.112C318.991 838.327 316.619 839.411 314.521 840.883C314.162 841.135 314.97 843.05 315.24 844.196C317.194 843.499 319.481 843.202 320.98 841.957C321.916 841.181 321.662 838.972 321.271 837.112Z" fill="#F8C900"/>
<path d="M689.506 707.203C688.086 705.329 687.008 703.372 685.917 701.421C683.209 696.576 679.464 692.029 677.985 686.836C674.086 673.151 671.099 659.203 667.89 645.327C665.79 636.25 661.875 634.678 653.108 637.759C641.051 641.994 628.743 645.632 616.346 648.739C608.344 650.745 600.653 645.698 599.137 638.778C597.397 630.833 601.113 624.045 609.3 621.872C635.127 615.015 659.583 604.575 684.018 594.026C686.418 592.99 689.148 592.745 691.657 591.926C694.311 591.059 697.314 590.494 699.423 588.847C713.148 578.126 725.882 565.896 740.52 556.665C751.426 549.787 755.329 539.351 760.93 529.496C773.55 507.292 784.633 484.355 790.255 459.266C792.239 450.411 792.909 441.246 793.941 432.196C796.319 411.352 793.54 390.805 790.112 370.308C790.003 369.655 790.018 368.979 790.004 368.313C789.654 350.845 789.738 333.354 788.853 315.912C787.659 292.387 785.652 268.904 784.192 245.391C784.028 242.749 785.152 240.027 786.013 237.122C797.684 248.703 803.463 263.269 806.833 278.907C810.366 295.301 807.576 311.719 806.654 328.152C805.912 341.398 805.334 354.755 806.264 367.951C806.732 374.598 809.581 381.755 813.332 387.356C822.147 400.519 823.67 414.344 818.983 428.811C813.217 446.607 809.334 464.648 807.096 483.24C805.084 499.945 797.548 514.938 786.672 527.578C769.637 547.378 752.062 566.753 733.945 585.567C722.035 597.934 706.317 604.513 690.022 609.257C676.619 613.159 663.048 616.482 649.576 620.155C647.746 620.654 646.064 621.695 644.313 622.485C644.466 623.112 644.618 623.74 644.77 624.367C647.562 624.367 650.467 624.876 653.129 624.288C676.554 619.117 699.559 612.619 721.12 601.788C721.557 601.569 722.049 601.46 722.901 601.168C721.591 606.284 719.618 611.1 719.261 616.033C718.651 624.45 719.779 633.023 718.838 641.38C717.819 650.424 721.028 658.137 723.852 666.181C724.441 667.858 724.541 670.305 723.727 671.761C721.397 675.932 719.043 680.349 715.685 683.634C707.371 691.771 698.493 699.331 689.506 707.203Z" fill="#CF9F02"/>
<path d="M193.184 661.193C189.666 662.399 186.149 663.605 182.278 664.372C181.917 658.483 181.91 653.031 181.903 647.579C184.947 636.396 182.201 627.03 171.236 619.178C191.879 615.384 210.942 613.775 230.577 613.264C232.036 617.079 233.001 620.429 233.966 623.779C233.96 624.9 233.954 626.02 233.627 627.633C231.481 631.671 229.885 635.361 227.758 638.715C226.06 641.393 226.116 643.492 228.319 645.639C220.783 649.097 213.246 652.556 205.209 655.732C204.478 654.945 204.247 654.441 204.382 653.919C205.781 653.205 207.323 652.741 207.762 651.775C210.019 646.81 212.159 641.777 214.022 636.653C216.109 630.915 214.014 625.964 210.53 621.382C208.732 619.019 206.685 618.402 203.762 619.879C200.977 619.395 198.171 618.201 196.222 619.027C194.884 619.594 193.701 623.28 194.227 625.038C197.41 635.668 194.435 645.595 191.776 655.682C191.353 657.284 192.671 659.345 193.184 661.193Z" fill="#815829"/>
<path d="M154.195 647.996C157.768 656.919 155.195 664.074 146.964 665.522C141.258 666.527 135.367 665.068 131.22 660.271C128.631 657.277 126.108 654.132 124.178 650.705C123.328 649.194 124.025 646.813 124.401 644.692C126.527 644.762 128.351 645.326 129.97 644.966C130.514 644.845 131.001 642.241 130.646 641.025C130.382 640.123 128.362 638.835 127.745 639.111C126.169 639.813 124.94 641.294 123.573 642.463C122.373 640.987 120.352 639.634 120.111 638.016C118.739 628.827 125.352 623.178 136.978 623.865C135.501 627.664 135.725 630.751 139.133 632.38C142.517 633.997 144.308 631.717 145.247 628.649C151.693 630.629 151.28 636.133 151.306 641.63C149.734 643.541 148.208 644.895 147.552 646.587C147.299 647.239 148.943 649.45 149.863 649.541C151.242 649.678 152.745 648.573 154.195 647.996ZM139.693 648.162C138.59 649.635 137.486 651.108 136.382 652.582C138.021 653.69 139.565 655.402 141.334 655.678C142.387 655.843 144.641 653.906 144.871 652.645C145.406 649.697 143.472 648.165 139.693 648.162ZM125.492 633.095C127.067 632.9 128.642 632.705 130.218 632.51C130.074 631.457 130.293 629.851 129.709 629.469C128.605 628.746 127.04 628.724 125.667 628.411C125.432 629.795 125.198 631.178 125.492 633.095Z" fill="#E85D0D"/>
<path d="M431.077 942.102C436.56 939.995 442.043 937.889 447.949 935.621C445.529 954.418 450.215 971.398 463.694 985.653C463.493 986.158 463.291 986.662 463.09 987.167C457.408 987.403 451.727 987.639 445.365 987.552C444.284 986.705 443.704 986.239 443.514 985.647C439.353 972.716 435.194 959.784 431.17 946.81C430.723 945.37 431.088 943.677 431.077 942.102Z" fill="#E89B46"/>
<path d="M172.06 667.395C165.949 670.497 159.635 670.849 152.087 669.153C154.888 666.468 157.675 664.814 158.865 662.379C160.163 659.724 160.724 656.237 160.295 653.304C159.283 646.381 157.698 639.516 155.891 632.749C155.349 630.719 153.408 629.005 151.93 627.301C150.705 625.889 149.217 624.704 147.845 623.419C147.997 622.815 148.149 622.21 148.301 621.606C154.061 621.535 159.821 621.464 165.526 621.835C163.037 624.388 164.305 625.959 166.174 627.532C167.801 628.902 170.026 630.081 170.798 631.86C174.965 641.465 177.138 651.294 172.801 661.578C172.07 663.313 172.283 665.446 172.06 667.395Z" fill="#81592A"/>
<path d="M435.043 986.045C424.76 984.253 417.13 978.732 413.385 969.003C411.45 963.975 410.966 958.37 409.992 952.995C409.142 948.306 411.565 945.787 415.951 944.823C418.68 944.224 421.419 943.667 424.473 943.48C424.922 947.057 424.458 950.408 425.284 953.402C428.304 964.347 431.755 975.174 435.043 986.045Z" fill="#EA9D49"/>
<path d="M471.9 985.06C460.648 977.715 454.914 966.983 453.01 953.277C455.114 951.046 457.048 949.544 458.981 948.042C456.694 946.676 454.406 945.31 452.119 943.945C452.505 932.452 455.946 922.077 463.82 913.326C465.215 915.007 466.173 916.526 467.086 918.416C461.772 929.618 460.459 940.989 462.351 953.038C462.347 953.611 462.502 953.883 462.794 954.288C462.817 954.485 462.783 954.881 462.467 955.042C460.458 956.5 458.473 957.574 457.222 959.209C456.756 959.819 457.986 962.864 458.475 962.872C460.693 962.91 462.922 962.26 465.376 962.117C468.24 966.549 470.874 970.721 473.11 975.011C472.405 977.094 471.134 979.988 471.969 980.856C474.775 983.773 476.377 980.456 478.467 978.855C479.546 979.574 480.326 980.201 481.038 981.192C477.946 982.725 474.923 983.892 471.9 985.06Z" fill="#E09C4C"/>
<path d="M204.016 653.936C204.247 654.44 204.478 654.944 204.823 655.702C201.258 657.653 197.579 659.351 193.541 661.121C192.671 659.344 191.353 657.283 191.776 655.681C194.435 645.594 197.409 635.668 194.227 625.038C193.701 623.279 194.884 619.593 196.221 619.027C198.171 618.2 200.977 619.394 203.724 620.244C204.417 621.618 204.569 622.788 205.228 623.283C209.92 626.807 210.626 631.467 208.914 636.597C207.718 640.181 205.706 643.496 204.554 647.09C203.875 649.212 204.163 651.643 204.016 653.936Z" fill="#A47C4E"/>
<path d="M479.98 900.457C495.797 891.07 516.592 897.718 527.212 910.649C525.402 916.317 526.711 917.804 533.032 918C535.024 923.401 537.016 928.803 538.662 934.644C536.217 936.388 534.117 937.691 531.914 938.616C530.001 927.046 526.286 916.847 517.491 909.017C506.348 899.097 488.593 899.344 480.048 904.792C480.01 903.084 479.995 901.77 479.98 900.457Z" fill="#D69545"/>
<path d="M435.406 986.171C431.755 975.175 428.304 964.348 425.284 953.403C424.458 950.408 424.921 947.057 424.876 943.482C426.73 942.693 428.503 942.292 430.676 941.996C431.088 943.677 430.723 945.37 431.17 946.81C435.194 959.784 439.353 972.716 443.514 985.647C443.704 986.239 444.284 986.705 444.911 987.506C442.016 987.287 438.892 986.791 435.406 986.171Z" fill="#8C5817"/>
<path d="M232.684 612.698C235.616 612.248 238.554 611.827 241.48 611.342C249.733 609.975 252.743 611.689 255.044 619.776C255.568 621.614 255.456 624.33 254.426 625.785C251.249 630.27 248.938 635.751 242.771 637.432C241.637 637.741 240.895 639.492 239.837 640.737C239.56 636.366 239.292 632.137 239.294 627.392C242.81 620.721 239.3 613.489 232.684 612.698Z" fill="#805728"/>
<path d="M531.854 891.967C537.938 885.992 539.696 886.044 543.538 893.191C550.091 905.379 554.612 918.281 555.594 932.553C553.281 932.243 551.463 931.514 549.66 930.408C545.568 918.913 541.622 907.729 537.208 896.734C536.411 894.749 533.688 893.537 531.854 891.967Z" fill="#E39F3F"/>
<path d="M531.545 891.98C533.688 893.536 536.411 894.748 537.208 896.734C541.622 907.729 545.568 918.912 549.356 930.515C547.398 931.694 545.759 932.389 544.12 933.085C540.729 925.343 537.337 917.602 533.92 909.126C532.254 903.583 530.615 898.774 528.976 893.965C529.729 893.308 530.483 892.651 531.545 891.98Z" fill="#8E5816"/>
<path d="M172.463 667.332C172.283 665.447 172.07 663.313 172.801 661.579C177.138 651.294 174.965 641.466 170.798 631.861C170.026 630.082 167.801 628.903 166.174 627.533C164.305 625.959 163.037 624.389 165.774 622.105C176.626 626.811 179.883 632.812 177.596 644.099C176.884 647.609 177.441 648.909 181.499 647.717C181.91 653.031 181.917 658.482 181.9 664.341C178.872 665.588 175.869 666.428 172.463 667.332Z" fill="#A17C4B"/>
<path d="M472.075 985.357C474.923 983.892 477.946 982.724 481.427 981.215C490.831 984.211 499.848 985.372 509.01 982.179C509.805 984.431 510.611 986.266 511.417 988.101C503.449 993.546 494.541 993.389 485.77 991.51C481.061 990.501 476.744 987.666 472.075 985.357Z" fill="#BE7A37"/>
<path d="M532.016 938.995C534.117 937.691 536.217 936.388 538.659 935.039C541.334 948.688 538.734 961.271 530.004 972.636C528.083 971.112 526.693 969.544 525.316 967.628C530.303 958.5 531.908 948.925 532.016 938.995Z" fill="#BF793E"/>
<path d="M254.687 635.697C256.398 632.498 259.306 629.386 259.545 626.08C259.916 620.926 258.477 615.642 257.78 610.217C257.831 610.23 259.521 610.167 260.313 610.98C266.31 617.133 272.131 623.458 278.135 629.865C275.201 630.788 271.844 631.844 268.073 633.029C267.897 630.798 268.014 629.105 267.557 627.586C267.247 626.559 266.127 625.776 265.37 624.885C264.845 625.781 263.716 626.818 263.888 627.55C265.478 634.305 261.061 635.483 255.558 636.138C255.016 636.025 254.687 635.697 254.687 635.697Z" fill="#967B48"/>
<path d="M295.318 768.852C296.69 770.144 298.346 771.463 298.635 773.033C300.676 784.113 309.04 787.978 318.338 791.047C319.812 791.534 320.953 793.028 322.248 794.056C320.546 794.577 318.432 796.013 317.211 795.463C311.384 792.841 305.733 789.794 300.176 786.624C298.868 785.878 297.963 784.171 297.226 782.726C295.395 779.136 293.768 775.442 292.008 771.447C292.961 770.401 293.966 769.697 295.318 768.852Z" fill="#2E180A"/>
<path d="M228.218 607.945C226.517 607.958 225.268 607.958 223.722 607.958C229.896 596.825 247.038 595.187 254.276 605.476C245.387 606.328 237.029 607.13 228.218 607.945Z" fill="#E8C508"/>
<path d="M544.106 933.524C545.758 932.389 547.398 931.694 549.341 930.891C551.463 931.513 553.28 932.243 555.487 932.967C555.567 939.557 551.455 942.893 544.843 945.193C544.582 941.274 544.338 937.619 544.106 933.524Z" fill="#BE7D34"/>
<path d="M527.218 977.12C523.712 980.102 520.206 983.085 516.239 985.849C514.517 983.762 513.256 981.894 512.27 979.83C515.661 977.223 518.778 974.813 521.987 972.77C523.792 974.464 525.505 975.792 527.218 977.12Z" fill="#B57C43"/>
<path d="M232.402 612.717C239.301 613.49 242.81 620.722 239.2 626.999C237.451 626.01 236.066 624.899 234.323 623.783C233.001 620.428 232.036 617.078 231.036 613.326C231.374 612.862 231.747 612.798 232.402 612.717Z" fill="#9F7F4C"/>
<path d="M325.389 662.602C333.708 669.141 342.031 675.675 350.331 682.238C350.666 682.503 350.782 683.045 351.511 684.423C340.469 679.331 332.104 672.409 325.058 663.351C325.107 662.887 325.389 662.602 325.389 662.602Z" fill="#B6AB25"/>
<path d="M228.698 645.653C226.116 643.49 226.06 641.392 227.758 638.714C229.885 635.36 231.481 631.67 233.657 628.053C236.811 635.001 234.814 642.16 228.698 645.653Z" fill="#9C7B52"/>
<path d="M479.65 900.367C479.995 901.768 480.009 903.082 479.88 905.072C477.257 907.618 474.778 909.488 471.94 911.224C470.031 910.396 468.481 909.702 466.932 909.009C471.061 906.099 475.19 903.189 479.65 900.367Z" fill="#E09C4C"/>
<path d="M528.659 894.086C530.615 898.774 532.254 903.584 533.905 908.778C530.262 905.866 526.607 902.568 522.463 898.829C524.578 897.167 526.46 895.687 528.659 894.086Z" fill="#CFA045"/>
<path d="M145.07 628.367C144.308 631.718 142.518 633.998 139.133 632.381C135.725 630.753 135.501 627.665 137.313 624.098C140.008 625.214 142.451 626.649 145.07 628.367Z" fill="#E5A458"/>
<path d="M452.042 944.381C454.406 945.311 456.693 946.676 458.98 948.042C457.047 949.544 455.114 951.046 452.965 952.878C452.488 950.411 452.226 947.614 452.042 944.381Z" fill="#9F5F18"/>
<path d="M527.48 976.948C525.505 975.792 523.792 974.464 522.015 972.472C523.067 970.529 524.185 969.252 525.302 967.975C526.693 969.542 528.083 971.11 529.742 972.85C529.254 974.274 528.498 975.525 527.48 976.948Z" fill="#7B4E1F"/>
<path d="M123.698 642.734C124.941 641.295 126.169 639.814 127.745 639.112C128.363 638.837 130.382 640.124 130.646 641.027C131.001 642.242 130.515 644.847 129.97 644.968C128.351 645.327 126.528 644.763 124.524 644.335C124.117 643.742 123.97 643.373 123.698 642.734Z" fill="#F6AA4C"/>
<path d="M466.661 909.15C468.481 909.702 470.031 910.396 471.87 911.551C470.483 914.024 468.807 916.034 467.132 918.045C466.173 916.525 465.215 915.006 464.121 913.156C464.786 911.648 465.588 910.47 466.661 909.15Z" fill="#875615"/>
<path d="M154.138 647.633C152.746 648.574 151.243 649.679 149.863 649.542C148.944 649.45 147.3 647.24 147.552 646.588C148.209 644.896 149.734 643.541 151.264 642.035C152.436 643.768 153.258 645.519 154.138 647.633Z" fill="#EBA346"/>
<path d="M511.995 980.027C513.256 981.895 514.517 983.763 515.904 985.96C514.706 986.922 513.383 987.554 511.738 988.145C510.611 986.267 509.805 984.432 509.197 981.96C510.262 980.891 511.128 980.459 511.995 980.027Z" fill="#794A1B"/>
<path d="M532.98 917.658C526.711 917.802 525.402 916.315 527.367 910.959C529.39 912.868 531.159 915.093 532.98 917.658Z" fill="#98591E"/>
<path d="M324.963 663.028C324.618 662.932 324.415 662.696 324.213 662.459C324.487 662.392 324.761 662.324 325.212 662.43C325.389 662.602 325.107 662.888 324.963 663.028Z" fill="#B6AB25"/>
<path d="M255.179 636.19C255.006 636.238 254.669 636.121 254.51 635.85C254.687 635.697 255.016 636.025 255.179 636.19Z" fill="#967B48"/>
<path d="M785.154 732.904C806.599 742.143 824.262 756.079 840.592 771.943C848.704 779.822 857.014 787.497 865.248 795.251C867.392 797.269 869.279 799.319 866.893 803.222C865.332 802.008 863.801 800.999 862.481 799.764C848.522 786.699 834.806 773.365 820.599 760.576C808.135 749.356 793.421 741.557 778.181 734.754C776.665 734.077 774.957 733.637 773.694 732.636C772.361 731.581 771.455 729.986 770.363 728.626C772.146 728.645 774.073 728.234 775.682 728.774C778.815 729.826 781.77 731.41 785.154 732.904Z" fill="#18120F"/>
<path d="M515.379 310.258C531.393 308.331 547.008 307.003 562.564 309.956C567.221 310.84 571.965 312.381 576.104 314.651C585.102 319.584 586.824 327.878 581.063 336.59C575.432 345.103 567.587 351.28 558.878 356.337C531.871 372.021 502.819 382.162 472.192 387.95C454.965 391.207 437.596 393.559 420.086 391.818C412.455 391.059 404.554 389.276 397.62 386.108C387.15 381.325 385.627 371.583 392.889 362.625C400.121 353.704 409.275 347.11 419.247 341.588C447.938 325.703 478.767 316.242 511.023 311.077C512.336 310.867 513.637 310.589 515.379 310.258ZM467.456 383.951C475.267 382.347 483.078 380.742 490.889 379.138C489.651 377.884 488.553 377.532 487.428 377.338C479.153 375.909 473.152 371.393 469.255 364.013C466.565 358.92 466.894 358.604 472.078 355.806C473.815 354.869 474.75 352.447 476.051 350.703C474.135 349.753 472.274 348.658 470.281 347.915C469.314 347.555 468.101 347.853 466.645 347.853C466.909 338.692 471.353 331.572 476.288 323.475C472.325 324.703 469.506 325.547 466.705 326.45C446.723 332.893 427.227 340.519 410.182 353.035C404.675 357.079 399.837 362.36 395.679 367.826C391.618 373.164 393.129 378.353 399.034 381.616C402.598 383.585 406.607 385.107 410.6 385.877C429.37 389.497 448.024 387.564 467.456 383.951ZM541.051 360.611C553.438 354.438 565.641 347.952 574.92 337.312C582.889 328.174 580.387 319.671 568.802 316.144C556.48 312.392 543.836 312.773 531.188 313.431C530.835 313.449 530.51 313.994 530.678 313.845C532.548 318.432 534.506 322.601 535.95 326.943C537.582 331.851 537.315 336.104 531.13 337.972C529.789 338.377 529.008 340.638 527.97 342.045C529.351 342.984 530.714 343.954 532.124 344.849C532.658 345.188 533.3 345.356 534.493 345.852C531.267 355.129 525.728 362.48 518.399 368.855C526.406 368.015 533.272 364.142 541.051 360.611Z" fill="#110F0B"/>
<path d="M750.313 372.402C729.793 380.235 708.896 380.156 687.917 377.881C663.898 375.277 640.823 369.219 620.133 356.24C614.707 352.836 609.599 348.552 605.292 343.811C596.648 334.296 597.819 321.674 608.794 315.098C616.444 310.516 625.386 306.802 634.15 305.59C672.538 300.285 709.435 305.833 743.874 324.253C749.504 327.265 754.781 331.369 759.347 335.856C772.117 348.406 769.438 363.06 753.363 370.96C752.468 371.4 751.556 371.804 750.313 372.402ZM651.364 364.054C651.346 364.028 651.327 364.001 651.309 363.974C651.449 363.89 651.59 363.805 651.023 363.554C648.362 357.919 645.448 352.385 643.147 346.607C641.974 343.661 642.778 341.162 646.962 340.892C648.282 340.807 650.33 338.875 650.489 337.596C650.653 336.278 649.138 334.496 647.943 333.348C646.986 332.427 645.41 332.151 643.278 331.229C646.246 326.506 648.436 321.968 651.609 318.275C654.664 314.72 658.736 312.038 662.362 308.972C662.155 308.406 661.948 307.84 661.742 307.274C651.921 308.402 641.948 308.821 632.329 310.889C625.001 312.463 617.647 315.31 611.166 319.074C603.137 323.736 602.303 331.645 607.637 339.244C608.209 340.059 608.864 340.819 609.515 341.575C620.312 354.098 635.047 359.663 650.177 364.495C650.566 364.62 651.2 363.977 651.364 364.054ZM761.869 357.057C761.591 353.358 762.493 348.939 760.772 346.122C757.82 341.29 753.717 336.832 749.229 333.33C738.351 324.844 725.486 320.208 712.428 316.197C711.175 315.812 709.74 316.02 709.222 315.995C711.283 321.912 713.526 327.543 715.17 333.344C716.367 337.57 715.435 340.811 709.89 341.207C708.186 341.329 706.63 343.518 705.006 344.76C706.385 346.186 707.687 347.699 709.176 348.999C709.861 349.598 710.91 349.78 712.367 350.392C707.239 361.73 698.379 368.295 687.331 372.687C707.473 374.9 727.331 375.823 746.61 368.702C752.591 366.493 758.251 363.686 761.869 357.057Z" fill="#100F0B"/>
<path d="M551.073 586.762C526.959 585.678 503.34 584.51 480.328 578.372C477.131 577.519 473.972 576.351 470.98 574.937C454.843 567.31 448.222 554.702 451.446 537.177C453.625 525.335 450.954 514.987 442.784 506.242C434.604 497.485 426.086 489.047 417.842 480.35C414.182 476.489 410.853 472.316 407.337 468.317C394.703 453.945 401.783 432.047 411.673 423.105C424.806 411.231 440.552 405.518 457.653 403.14C483.139 399.597 507.829 392.961 532.048 384.513C554.987 376.511 578.288 371.866 602.603 375.971C609.622 377.156 616.725 378.67 623.351 381.187C637.541 386.58 652.181 388.923 667.212 389.889C676.006 390.454 684.734 392.223 693.527 392.569C705.147 393.026 716.808 392.872 728.437 392.508C738.25 392.202 748.034 390.987 757.847 390.646C762.445 390.485 767.219 390.885 771.67 392.002C779.48 393.963 784.175 400.587 784.247 408.552C784.412 426.965 777.321 441.129 760.289 449.507C757.905 450.68 755.677 452.166 753.345 453.449C734.726 463.692 722.437 478.573 717.712 499.741C715.405 510.079 711.296 520.006 708.214 530.182C704.48 542.507 696.531 551.362 685.66 557.684C660.768 572.159 634.041 581.773 605.401 584.686C587.568 586.5 569.516 586.151 551.073 586.762ZM466.272 566.321C475.381 572.764 485.953 575.317 496.653 576.932C529.03 581.82 561.555 583.471 594.298 581.207C625.649 579.04 654.516 569.212 681.828 554.253C692.608 548.349 700.22 539.578 703.924 527.647C706.291 520.025 708.709 512.416 711.244 504.849C714.246 495.886 716.534 486.549 720.674 478.133C728.215 462.806 742.077 453.663 756.652 446.095C770.673 438.814 778.214 428.011 779.53 412.34C780.343 402.668 775.783 396.195 766.057 395.875C757.092 395.58 748.094 396.349 739.109 396.577C723.826 396.966 708.529 397.849 693.263 397.474C681.819 397.192 670.354 395.669 659.012 393.946C648.545 392.356 637.895 390.76 627.922 387.397C609.815 381.291 591.585 378.134 572.486 379.686C553.969 381.19 537.004 388.462 519.553 393.747C501.205 399.303 482.879 404.636 463.847 407.13C453.098 408.539 442.612 410.767 432.628 415.122C424.077 418.852 416.557 423.921 411.022 431.547C404.911 439.968 403.016 449.315 407.292 458.9C409.469 463.781 413.093 468.199 416.745 472.206C427.064 483.526 438.002 494.288 448.181 505.728C456.003 514.518 458.83 524.893 456.351 536.834C454.03 548.014 455.422 558.508 466.272 566.321Z" fill="#1D0F08"/>
<path d="M715.513 280.489C737.491 289.586 757.227 301.248 772.432 319.545C781.109 329.986 782.756 341.898 780.109 354.771C779.943 355.579 779.865 356.619 779.336 357.096C778.024 358.279 776.475 359.198 775.021 360.223C774.818 358.625 774.03 356.821 774.506 355.461C778.386 344.387 776.838 334.152 770.118 324.673C768.297 322.104 766.279 319.608 764.011 317.433C735.58 290.175 702.181 275.259 662.248 277.096C637.394 278.239 616.691 288.372 600.043 306.819C599.172 307.784 598.738 309.172 597.804 310.046C597.021 310.778 595.804 311.045 594.779 311.518C594.404 310.362 593.613 309.149 593.764 308.066C593.934 306.845 594.715 305.49 595.636 304.626C607.141 293.825 618.217 282.561 633.975 277.59C660.014 269.374 685.744 270.161 711.397 279.012C712.654 279.446 713.911 279.88 715.513 280.489Z" fill="#1E1308"/>
<path d="M466.394 298.269C444.391 305.838 425.012 317.322 407.203 331.506C398.19 338.684 391.078 347.365 387.93 358.783C387.554 360.148 386.817 361.414 386.248 362.726C385.673 362.691 385.099 362.657 384.524 362.622C384.524 359.776 383.917 356.766 384.635 354.114C387.011 345.345 392.419 338.368 398.975 332.284C412.88 319.383 428.919 309.67 445.896 301.451C471.074 289.263 497.647 283.576 525.64 284.913C543.954 285.787 560.735 292.044 576.951 300.024C578.182 300.63 578.538 303.013 579.301 304.57C577.855 304.642 576.077 305.302 575.009 304.701C539.969 284.967 503.689 286.398 466.394 298.269Z" fill="#201307"/>
<path d="M635.615 679.592C641.521 673.48 647.108 667.545 652.93 661.85C653.979 660.825 655.993 660.787 657.562 660.293C657.185 661.887 657.326 663.965 656.356 665.004C640.697 681.772 624.929 698.439 609.05 714.999C608.093 715.997 605.998 715.906 604.433 716.322C604.972 714.82 605.122 712.968 606.11 711.871C615.785 701.126 625.601 690.506 635.615 679.592Z" fill="#221407"/>
<path d="M743.258 520.831C741.989 520.187 740.137 519.266 740.101 518.278C739.61 504.963 742.522 492.175 746.734 479.655C747.094 478.585 748.713 477.939 749.748 477.096C750.156 478.533 751.124 480.07 750.887 481.391C748.545 494.456 746.004 507.485 743.258 520.831Z" fill="#201809"/>
<path d="M556.101 615.377C557.035 614.425 558.37 613.111 559.149 613.384C561.792 614.311 564.253 615.768 566.755 617.077C574.251 620.995 582.201 623.045 590.67 623.307C591.856 623.344 593.004 624.608 594.17 625.304C592.979 626.209 591.782 627.906 590.598 627.897C577.787 627.803 566.003 624.574 556.101 615.377Z" fill="#2A1B07"/>
<path d="M408.889 547.031C413.424 552.975 417.809 558.59 421.903 564.41C422.649 565.47 422.207 567.365 422.313 568.875C421 568.208 419.289 567.865 418.44 566.82C413.23 560.411 408.214 553.844 403.051 547.223C404.685 544.158 406.632 545.165 408.889 547.031Z" fill="#291B0A"/>
<path d="M342.219 750.968C338.987 749.962 336.072 749.219 333.402 747.958C332.441 747.503 332.069 745.802 331.429 744.669C332.583 744.396 333.95 743.578 334.859 743.934C343.85 747.454 352.885 747.68 362.16 745.154C363.524 744.782 365.293 745.899 366.874 746.328C365.689 747.474 364.595 749.484 363.302 749.621C356.44 750.349 349.529 750.607 342.219 750.968Z" fill="#2C1808"/>
<path d="M378.953 718.264C377.799 717.198 377.023 716.278 376.247 715.358C377.345 714.849 378.411 714.016 379.549 713.9C381.687 713.684 383.889 713.708 386.017 713.988C386.954 714.112 387.777 715.106 388.651 715.705C387.968 716.501 387.378 717.857 386.584 717.99C384.209 718.386 381.755 718.304 378.953 718.264Z" fill="#2E1C08"/>
<path d="M321.607 837.26C321.662 838.973 321.916 841.181 320.98 841.958C319.481 843.203 317.194 843.499 315.24 844.196C314.971 843.05 314.162 841.135 314.521 840.884C316.62 839.411 318.991 838.327 321.607 837.26Z" fill="#573406"/>
<path d="M204.382 653.917C204.163 651.643 203.875 649.211 204.555 647.09C205.706 643.495 207.719 640.18 208.915 636.596C210.626 631.467 209.92 626.807 205.228 623.282C204.569 622.787 204.417 621.618 204.068 620.395C206.685 618.4 208.732 619.018 210.53 621.381C214.015 625.963 216.109 630.914 214.022 636.652C212.159 641.776 210.02 646.809 207.762 651.774C207.323 652.739 205.781 653.204 204.382 653.917Z" fill="#1F0F06"/>
<path d="M140.086 648.145C143.473 648.165 145.407 649.697 144.871 652.644C144.642 653.906 142.388 655.843 141.335 655.678C139.566 655.402 138.022 653.69 136.383 652.581C137.486 651.108 138.59 649.635 140.086 648.145Z" fill="#EEA646"/>
<path d="M125.228 632.829C125.198 631.179 125.433 629.796 125.667 628.412C127.04 628.725 128.605 628.746 129.71 629.47C130.293 629.852 130.074 631.458 130.218 632.511C128.643 632.706 127.067 632.901 125.228 632.829Z" fill="#722B0E"/>
<path d="M512.27 979.83C511.128 980.459 510.262 980.891 509.208 981.542C499.848 985.372 490.831 984.211 481.496 980.849C480.326 980.2 479.546 979.573 478.378 978.537C476.497 977.049 475.002 975.971 473.508 974.893C470.874 970.72 468.239 966.548 465.356 961.745C464.332 959.037 463.557 956.958 462.782 954.88C462.782 954.88 462.817 954.484 462.851 954.048C462.871 953.252 462.707 952.982 462.396 952.802C460.459 940.988 461.772 929.617 467.085 918.415C468.807 916.034 470.483 914.024 472.229 911.686C474.778 909.489 477.257 907.619 479.904 905.467C488.592 899.342 506.348 899.096 517.49 909.016C526.286 916.846 530 927.044 531.914 938.614C531.908 948.923 530.302 958.499 525.316 967.626C524.185 969.252 523.067 970.529 521.922 972.105C518.778 974.813 515.661 977.223 512.27 979.83ZM492.906 905.985C488.181 908.232 482.948 909.795 478.825 912.854C466.636 921.901 461.261 948.235 471.956 964.041C478.287 973.398 486.421 979.535 497.925 978.826C509.073 978.139 517.056 971.838 522.079 961.887C525.832 954.452 527.685 946.549 526.948 938.24C525.392 920.712 511.34 903.713 492.906 905.985Z" fill="#180E08"/>
<path d="M462.467 955.043C463.557 956.96 464.332 959.038 465.127 961.487C462.922 962.26 460.692 962.911 458.475 962.873C457.986 962.864 456.755 959.819 457.222 959.209C458.472 957.574 460.458 956.501 462.467 955.043Z" fill="#945B1B"/>
<path d="M473.109 975.01C475.003 975.971 476.497 977.049 478.08 978.444C476.376 980.455 474.775 983.772 471.969 980.854C471.134 979.986 472.405 977.093 473.109 975.01Z" fill="#885B24"/>
<path d="M462.351 953.038C462.708 952.983 462.871 953.253 462.828 953.851C462.502 953.882 462.347 953.61 462.351 953.038Z" fill="#945B1B"/>
<path d="M467.026 384.001C448.024 387.564 429.37 389.497 410.6 385.877C406.607 385.107 402.597 383.585 399.034 381.616C393.129 378.353 391.618 373.164 395.679 367.826C399.837 362.36 404.674 357.079 410.182 353.035C427.227 340.52 446.723 332.893 466.705 326.45C469.506 325.547 472.325 324.703 476.288 323.475C471.353 331.572 466.909 338.692 466.645 347.853C468.101 347.853 469.314 347.555 470.281 347.915C472.274 348.658 474.135 349.753 476.051 350.703C474.749 352.447 473.814 354.869 472.078 355.806C466.894 358.604 466.565 358.92 469.255 364.014C473.151 371.393 479.153 375.909 487.427 377.338C488.553 377.532 489.651 377.884 490.888 379.138C483.077 380.742 475.266 382.347 467.026 384.001Z" fill="#F4F1DF"/>
<path d="M540.707 360.76C533.272 364.142 526.406 368.015 518.398 368.854C525.728 362.479 531.267 355.129 534.493 345.852C533.3 345.356 532.658 345.187 532.124 344.848C530.714 343.953 529.351 342.984 527.969 342.044C529.008 340.638 529.789 338.377 531.13 337.972C537.315 336.103 537.582 331.85 535.95 326.942C534.506 322.601 532.548 318.431 530.677 313.845C530.509 313.993 530.835 313.449 531.188 313.431C543.836 312.772 556.48 312.392 568.802 316.144C580.387 319.671 582.889 328.174 574.92 337.311C565.64 347.951 553.438 354.438 540.707 360.76Z" fill="#F2F1DE"/>
<path d="M761.718 357.407C758.251 363.686 752.591 366.493 746.61 368.702C727.331 375.823 707.473 374.9 687.331 372.687C698.379 368.295 707.239 361.73 712.368 350.392C710.911 349.78 709.861 349.598 709.176 348.999C707.688 347.699 706.385 346.186 705.006 344.76C706.63 343.518 708.186 341.329 709.89 341.207C715.435 340.811 716.368 337.57 715.17 333.344C713.527 327.543 711.283 321.912 709.222 315.995C709.74 316.02 711.175 315.812 712.428 316.197C725.486 320.208 738.352 324.844 749.229 333.33C753.718 336.832 757.82 341.29 760.772 346.122C762.493 348.939 761.591 353.358 761.718 357.407Z" fill="#F4F1DF"/>
<path d="M651.719 363.692C651.2 363.977 650.566 364.62 650.177 364.496C635.047 359.663 620.312 354.098 609.515 341.575C608.864 340.819 608.209 340.059 607.637 339.244C602.303 331.646 603.137 323.737 611.166 319.074C617.647 315.31 625.001 312.464 632.329 310.889C641.948 308.822 651.921 308.402 661.742 307.274C661.948 307.84 662.155 308.406 662.361 308.972C658.736 312.038 654.664 314.72 651.609 318.275C648.436 321.969 646.246 326.507 643.278 331.229C645.41 332.151 646.986 332.427 647.943 333.348C649.138 334.497 650.653 336.279 650.489 337.596C650.33 338.876 648.282 340.807 646.962 340.892C642.778 341.162 641.974 343.661 643.147 346.607C645.448 352.385 648.362 357.919 651.332 363.644C651.641 363.734 651.719 363.692 651.719 363.692Z" fill="#F0F2DE"/>
<path d="M651.686 363.728C651.59 363.805 651.45 363.89 651.309 363.975C651.328 364.001 651.346 364.028 651.542 363.874C651.72 363.692 651.642 363.735 651.686 363.728Z" fill="#F0F2DE"/>
<path d="M465.986 566.099C455.422 558.508 454.03 548.013 456.351 536.834C458.83 524.893 456.004 514.518 448.181 505.727C438.002 494.288 427.064 483.526 416.745 472.205C413.094 468.199 409.469 463.781 407.292 458.9C403.016 449.315 404.911 439.967 411.022 431.547C416.557 423.921 424.077 418.851 432.628 415.122C442.612 410.767 453.098 408.539 463.847 407.13C482.88 404.635 501.205 399.303 519.553 393.746C537.004 388.462 553.969 381.189 572.486 379.686C591.585 378.134 609.815 381.291 627.922 387.397C637.895 390.76 648.546 392.356 659.012 393.946C670.354 395.669 681.819 397.192 693.263 397.473C708.529 397.849 723.826 396.966 739.109 396.577C748.094 396.349 757.092 395.58 766.057 395.875C775.783 396.195 780.343 402.667 779.53 412.34C778.214 428.01 770.673 438.814 756.653 446.094C742.077 453.663 728.215 462.806 720.674 478.133C716.534 486.549 714.246 495.886 711.244 504.848C708.709 512.416 706.291 520.025 703.924 527.647C700.22 539.577 692.608 548.349 681.828 554.253C654.516 569.212 625.649 579.04 594.298 581.207C561.555 583.471 529.03 581.819 496.654 576.932C485.953 575.317 475.381 572.764 465.986 566.099ZM483.166 441.674C479.298 442.488 475.43 443.303 471.531 444.125C471.232 443.437 471.044 442.996 470.848 442.559C470.291 441.318 469.731 440.079 469.172 438.839C468.12 439.936 466.828 440.889 466.063 442.159C464.352 445 462.781 447.943 461.396 450.956C460.625 452.635 460.344 454.538 459.842 456.34C461.437 456.495 463.033 456.65 464.915 456.834C465.236 458.23 465.574 459.845 465.98 461.443C470.278 478.344 474.303 495.322 478.997 512.112C481.948 522.668 485.926 532.936 489.41 543.344C491.465 549.485 495.177 553.274 502.145 553.112C515.089 552.809 528.129 553.568 540.963 552.257C565.953 549.703 590.843 546.132 615.747 542.771C630.579 540.77 645.377 538.494 660.152 536.098C669.043 534.656 675.387 530.253 677.285 520.631C678.31 515.438 680.494 510.485 681.861 505.345C687.415 484.461 692.885 463.555 698.307 442.636C699.226 439.092 700.288 436.906 704.243 439.889C705.487 440.826 707.331 441.297 708.916 441.336C709.933 441.361 710.98 440.207 712.013 439.581C711.348 438.749 710.829 437.712 709.995 437.119C704.762 433.397 699.515 429.688 694.145 426.169C692.515 425.1 690.483 424.642 688.635 423.905C689.043 425.791 689.467 427.673 689.844 429.565C689.902 429.857 689.751 430.191 689.671 430.651C685.413 430.651 681.137 430.683 676.862 430.644C666.045 430.547 655.203 429.889 644.417 430.4C609.482 432.057 574.551 433.885 539.652 436.159C521.061 437.37 502.538 439.634 483.166 441.674Z" fill="#FD5A02"/>
<path d="M493.353 905.97C511.341 903.712 525.393 920.712 526.948 938.24C527.685 946.549 525.832 954.452 522.079 961.887C517.056 971.838 509.073 978.139 497.925 978.826C486.421 979.535 478.287 973.398 471.956 964.041C461.261 948.235 466.636 921.901 478.826 912.854C482.948 909.795 488.181 908.232 493.353 905.97ZM516.118 953.181C513.137 954.86 509.823 956.159 507.301 958.363C505.845 959.635 505.667 962.37 504.914 964.446C506.734 963.516 508.553 962.586 510.372 961.656C510.66 961.509 510.946 961.356 510.902 961.379C512.893 961.983 514.626 962.508 517.54 963.392C517.185 959.455 516.928 956.602 516.118 953.181ZM483.662 926.28C481.105 928.592 481.527 931.131 483.804 933.044C484.22 933.394 487.192 931.481 488.271 930.068C489.619 928.305 490.229 925.977 491.158 923.893C488.882 924.571 486.607 925.248 483.662 926.28ZM500.203 945.132C501.604 945.54 503.006 945.947 504.939 946.509C504.764 944.68 505.019 943.452 504.519 942.845C502.872 940.843 499.95 937.17 499.301 937.513C495.522 939.511 499.547 941.736 499.824 943.996C499.844 944.158 499.906 944.316 500.203 945.132Z" fill="#554231"/>
<path d="M483.576 441.548C502.538 439.634 521.061 437.37 539.652 436.158C574.551 433.885 609.482 432.056 644.417 430.4C655.204 429.888 666.045 430.547 676.862 430.644C681.137 430.682 685.414 430.65 689.672 430.65C689.751 430.191 689.903 429.857 689.844 429.565C689.467 427.673 689.043 425.79 688.635 423.904C690.483 424.642 692.515 425.099 694.146 426.168C699.515 429.688 704.762 433.396 709.995 437.118C710.829 437.712 711.348 438.748 712.013 439.58C710.98 440.206 709.933 441.361 708.916 441.335C707.331 441.297 705.487 440.826 704.243 439.888C700.288 436.905 699.226 439.092 698.307 442.636C692.885 463.554 687.415 484.461 681.861 505.345C680.494 510.484 678.31 515.437 677.285 520.63C675.387 530.253 669.043 534.656 660.152 536.098C645.378 538.494 630.579 540.769 615.747 542.771C590.843 546.131 565.953 549.702 540.963 552.256C528.129 553.568 515.089 552.809 502.145 553.111C495.177 553.274 491.465 549.485 489.41 543.344C485.927 532.935 481.948 522.667 478.997 512.112C474.303 495.321 470.278 478.344 465.98 461.443C465.574 459.845 465.236 458.229 464.915 456.833C463.034 456.65 461.438 456.495 459.842 456.339C460.344 454.537 460.626 452.634 461.397 450.956C462.781 447.943 464.353 445 466.063 442.159C466.828 440.888 468.12 439.935 469.172 438.838C469.731 440.078 470.291 441.317 470.848 442.558C471.044 442.996 471.232 443.437 471.531 444.124C475.431 443.303 479.299 442.488 483.576 441.548ZM624.013 468.608C644.328 466.084 664.649 463.599 684.95 460.962C686.528 460.757 688.966 459.799 689.31 458.673C691.533 451.4 693.284 443.983 695.197 436.585C694.305 436.268 693.853 435.967 693.401 435.966C672.597 435.937 651.759 435.175 630.995 436.088C590.224 437.881 549.474 440.316 508.76 443.126C496.547 443.969 484.484 446.955 472.346 448.919C469.678 449.351 468.538 450.758 469.11 453.425C470.751 461.063 472.28 468.73 474.202 476.297C474.495 477.449 476.582 478.779 477.944 478.907C482.245 479.312 486.595 479.201 490.927 479.259C503.414 479.428 516.007 480.699 528.367 479.524C560.013 476.515 591.555 472.417 624.013 468.608ZM657.423 498.966C649.508 500.053 641.61 501.297 633.674 502.2C588.839 507.302 544.002 512.42 498.739 511.006C494.91 510.886 491.074 510.977 487.242 510.893C484.728 510.838 483.226 511.726 484.072 514.432C487.043 523.923 489.767 533.52 493.386 542.762C494.376 545.291 498.144 548.337 500.689 548.384C514.817 548.648 529.059 549.004 543.079 547.557C567.731 545.012 592.265 541.29 616.821 537.86C631.643 535.79 646.425 533.416 661.201 531.029C667.765 529.968 672.017 526.264 673.174 519.427C673.449 517.801 674.138 516.248 674.608 514.654C676.638 507.783 678.656 500.909 680.751 493.792C672.77 495.585 665.529 497.212 657.423 498.966ZM569.377 480.015C563.577 480.411 557.626 480.109 552.005 481.329C532.449 485.575 512.678 485.209 492.891 484.902C488.418 484.833 483.953 484.079 479.482 484.06C476.203 484.047 474.576 485.721 475.9 489.307C477.282 493.053 478.827 496.806 479.594 500.695C480.464 505.109 482.867 506.221 486.983 506.137C496.757 505.937 506.539 505.998 516.316 506.096C521.619 506.15 526.963 507.037 532.212 506.607C547.749 505.334 563.233 503.423 578.766 502.086C593.14 500.848 607.616 500.588 621.926 498.887C639.862 496.755 657.697 493.719 675.515 490.716C677.78 490.334 680.724 488.215 681.551 486.172C683.833 480.53 685.238 474.524 686.829 468.618C687.512 466.082 686.237 464.729 683.623 465.054C679.063 465.621 674.526 466.366 669.971 466.973C650.904 469.516 631.836 472.058 612.763 474.556C598.622 476.408 584.471 478.192 569.377 480.015Z" fill="#1E0E0B"/>
<path d="M516.395 953.467C516.929 956.604 517.186 959.456 517.54 963.394C514.626 962.509 512.893 961.984 510.902 961.38C510.946 961.358 510.66 961.51 510.372 961.657C508.553 962.588 506.734 963.517 504.914 964.447C505.667 962.371 505.845 959.636 507.301 958.364C509.823 956.16 513.137 954.861 516.395 953.467Z" fill="#DED5CD"/>
<path d="M483.997 926.104C486.607 925.25 488.883 924.572 491.158 923.895C490.229 925.979 489.619 928.306 488.271 930.07C487.192 931.482 484.22 933.396 483.804 933.045C481.527 931.132 481.106 928.593 483.997 926.104Z" fill="#DDD4C6"/>
<path d="M500.076 944.805C499.906 944.317 499.844 944.16 499.825 943.997C499.547 941.737 495.522 939.512 499.302 937.515C499.951 937.172 502.872 940.844 504.519 942.846C505.019 943.453 504.764 944.681 504.939 946.51C503.006 945.948 501.605 945.541 500.076 944.805Z" fill="#DBD1C3"/>
<path d="M623.575 468.681C591.555 472.417 560.013 476.516 528.367 479.524C516.007 480.699 503.414 479.428 490.927 479.259C486.595 479.201 482.245 479.312 477.944 478.908C476.582 478.78 474.495 477.449 474.202 476.298C472.28 468.73 470.751 461.063 469.11 453.425C468.538 450.759 469.678 449.351 472.346 448.92C484.484 446.955 496.547 443.97 508.76 443.127C549.474 440.316 590.224 437.881 630.995 436.088C651.759 435.175 672.597 435.937 693.401 435.967C693.853 435.967 694.305 436.268 695.197 436.585C693.284 443.983 691.533 451.4 689.31 458.674C688.966 459.799 686.528 460.757 684.95 460.962C664.649 463.599 644.328 466.084 623.575 468.681Z" fill="#F5F2DF"/>
<path d="M657.856 498.904C665.529 497.213 672.77 495.586 680.751 493.793C678.656 500.91 676.638 507.784 674.608 514.655C674.138 516.249 673.449 517.802 673.174 519.428C672.017 526.265 667.765 529.969 661.201 531.029C646.425 533.417 631.643 535.791 616.821 537.861C592.265 541.291 567.731 545.013 543.079 547.558C529.059 549.005 514.817 548.649 500.689 548.385C498.144 548.337 494.376 545.292 493.386 542.763C489.767 533.521 487.043 523.924 484.072 514.432C483.226 511.727 484.728 510.838 487.242 510.894C491.073 510.978 494.91 510.887 498.739 511.007C544.002 512.421 588.839 507.303 633.674 502.201C641.61 501.298 649.508 500.054 657.856 498.904Z" fill="#F5F2DF"/>
<path d="M569.851 480.01C584.471 478.191 598.621 476.407 612.763 474.555C631.836 472.057 650.904 469.515 669.971 466.972C674.526 466.365 679.063 465.62 683.623 465.054C686.236 464.729 687.512 466.081 686.829 468.617C685.238 474.523 683.833 480.53 681.551 486.171C680.724 488.214 677.78 490.333 675.515 490.715C657.697 493.719 639.862 496.754 621.926 498.886C607.616 500.587 593.14 500.848 578.766 502.085C563.233 503.422 547.749 505.333 532.212 506.606C526.963 507.036 521.619 506.149 516.316 506.096C506.539 505.997 496.757 505.936 486.983 506.136C482.867 506.221 480.464 505.108 479.594 500.695C478.827 496.805 477.282 493.052 475.899 489.306C474.576 485.721 476.203 484.046 479.482 484.06C483.953 484.078 488.417 484.832 492.891 484.901C512.678 485.208 532.449 485.575 552.005 481.329C557.626 480.108 563.577 480.41 569.851 480.01Z" fill="#60080A"/>
</g>
<defs>
<clipPath id="clip0_3136_2">
<rect width="1080" height="1080" fill="white"/>
</clipPath>
</defs>
</svg>
